<svg width="240" height="233" viewBox="0 0 240 233" fill="none" xmlns="http://www.w3.org/2000/svg">
<path d="M111.479 232.563C167.198 232.563 212.366 187.394 212.366 131.676C212.366 75.9571 167.198 30.7883 111.479 30.7883C55.7606 30.7883 10.5918 75.9571 10.5918 131.676C10.5918 187.394 55.7606 232.563 111.479 232.563Z" fill="#ECF3FE"/>
<path opacity="0.25" d="M37.9289 126.743C37.3189 126.674 36.8483 126.151 36.8571 125.523C36.8658 124.852 37.4148 124.312 38.0858 124.321C40.1337 124.338 42.2165 124.138 44.2556 123.711C44.9092 123.571 45.5541 123.998 45.6935 124.652C45.833 125.305 45.4059 125.95 44.7524 126.09C42.5389 126.552 40.2906 126.769 38.0684 126.752C38.0161 126.752 37.9725 126.752 37.9289 126.743ZM31.5238 125.95C31.4715 125.942 31.428 125.933 31.3757 125.924C29.1361 125.375 27.0097 124.565 25.0577 123.519C24.4651 123.205 24.2472 122.465 24.561 121.872C24.8747 121.279 25.6154 121.061 26.208 121.375C27.977 122.325 29.9116 123.057 31.9508 123.563C32.6044 123.719 32.9966 124.382 32.8397 125.027C32.6916 125.637 32.1251 126.02 31.5238 125.95ZM50.5126 124.146C50.0943 124.094 49.7196 123.841 49.5366 123.432C49.2664 122.822 49.5453 122.098 50.164 121.837C52.0464 121.009 53.8764 119.99 55.5931 118.787C56.1422 118.404 56.9003 118.543 57.2838 119.083C57.6672 119.632 57.5365 120.39 56.9875 120.774C55.14 122.064 53.1792 123.162 51.1488 124.051C50.9309 124.146 50.7218 124.173 50.5126 124.146ZM20.2996 119.833C20.0382 119.798 19.7854 119.685 19.585 119.484C18.853 118.752 18.1733 117.977 17.572 117.166C16.8225 116.164 16.1515 115.083 15.5851 113.95C15.2888 113.349 15.5241 112.626 16.1254 112.321C16.7179 112.016 17.45 112.26 17.755 112.861C18.2604 113.863 18.853 114.822 19.5153 115.711C20.0556 116.425 20.6569 117.123 21.3018 117.767C21.7723 118.238 21.7811 119.005 21.3018 119.484C21.0229 119.754 20.6482 119.876 20.2996 119.833ZM14.5132 108.487C13.999 108.426 13.5546 108.033 13.4587 107.493C13.0753 105.323 12.962 103.057 13.1189 100.748C13.1276 100.67 13.1363 100.6 13.1537 100.53C13.1189 100.617 13.0666 100.704 13.0056 100.783C12.6047 101.323 11.8466 101.428 11.3063 101.036C9.46752 99.6762 7.80306 98.1425 6.35646 96.4867C5.91202 95.9813 5.96431 95.2144 6.46975 94.7787C6.97519 94.3342 7.74206 94.3865 8.17778 94.892C9.5111 96.417 11.0448 97.8287 12.7442 99.0836C13.1537 99.3886 13.3193 99.8941 13.1973 100.356C13.389 99.8941 13.8683 99.5803 14.3999 99.6152C15.0883 99.6675 15.5764 100.243 15.5241 100.914C15.3759 103.023 15.4805 105.088 15.8291 107.066C15.9424 107.728 15.5066 108.356 14.8443 108.469C14.7485 108.495 14.6265 108.495 14.5132 108.487ZM23.6024 106.543C23.5762 106.543 23.5501 106.534 23.5239 106.534C21.4063 106.142 19.2451 105.445 17.0927 104.46C16.4827 104.182 16.2125 103.458 16.4914 102.848C16.7702 102.238 17.4935 101.968 18.1035 102.247C20.0643 103.145 22.0425 103.789 23.9597 104.138C24.622 104.26 25.0577 104.896 24.9357 105.55C24.8137 106.195 24.2298 106.622 23.6024 106.543ZM30.0336 106.63C29.5195 106.569 29.0838 106.186 28.9792 105.654C28.8572 104.992 29.2842 104.365 29.9465 104.234C31.1491 104.007 32.2471 103.615 33.2144 103.066C33.8593 102.7 34.4954 102.247 35.1055 101.707C35.6109 101.262 36.3778 101.315 36.8135 101.811C37.2579 102.317 37.2144 103.084 36.7089 103.519C35.9682 104.173 35.1926 104.731 34.4083 105.175C33.2057 105.855 31.855 106.334 30.3997 106.613C30.2776 106.639 30.1469 106.648 30.0336 106.63ZM39.5847 98.6479C39.4627 98.6305 39.3407 98.5956 39.2187 98.5433C38.6087 98.2645 38.3385 97.5412 38.6174 96.9311C39.2012 95.6675 39.5673 94.3778 39.7154 93.0968C39.7851 92.4693 39.8113 91.8419 39.7677 91.2319C39.7328 90.5609 40.2383 89.9857 40.9093 89.9509C41.5803 89.916 42.1554 90.4214 42.1903 91.0925C42.2339 91.8419 42.2077 92.6088 42.1206 93.3843C41.9376 94.9181 41.5019 96.4606 40.8134 97.9507C40.6043 98.4387 40.0988 98.7089 39.5847 98.6479ZM15.3759 95.685C15.3062 95.6763 15.2278 95.6588 15.1581 95.6414C14.5132 95.441 14.1559 94.7699 14.3563 94.1251C14.9315 92.2428 15.6896 90.465 16.5959 88.8441C16.7441 88.5827 16.9097 88.2864 17.0927 87.9727C17.4238 87.3888 18.1733 87.1971 18.7484 87.5195C19.3323 87.8507 19.5327 88.5914 19.2016 89.1753C19.0186 89.489 18.8617 89.7678 18.7223 90.0293C17.9031 91.4933 17.2147 93.1142 16.6831 94.831C16.5001 95.4061 15.9424 95.7547 15.3759 95.685ZM3.52426 91.5456C3.13211 91.502 2.7661 91.258 2.57438 90.8746C2.35652 90.4389 2.15609 89.9944 1.97309 89.5413C1.28465 87.8855 0.796639 86.1514 0.535205 84.3649C0.439346 83.7026 0.892499 83.0839 1.5548 82.988C2.2171 82.8922 2.83582 83.3453 2.93168 84.0076C3.16697 85.5936 3.60269 87.1361 4.21271 88.6088C4.37828 89.0097 4.56128 89.4018 4.753 89.794C5.04929 90.3953 4.80529 91.1186 4.20399 91.4236C3.98613 91.5369 3.75084 91.5717 3.52426 91.5456ZM21.8508 84.6089C21.5806 84.574 21.3279 84.4608 21.1275 84.2516C20.6569 83.7723 20.6656 83.0054 21.1449 82.5349C23.0359 80.6874 25.11 79.5284 27.3147 79.0839C27.977 78.9532 28.6132 79.3802 28.7439 80.0338C28.8746 80.6874 28.4476 81.3323 27.794 81.463C26.0599 81.8116 24.3954 82.7614 22.8442 84.269C22.5654 84.5392 22.1993 84.6438 21.8508 84.6089ZM38.6609 86.3779C38.3385 86.3431 38.0335 86.1688 37.8244 85.8899C36.6741 84.3126 35.088 83.0054 33.3539 82.2037C32.7438 81.9248 32.4824 81.2015 32.7613 80.5915C33.0401 79.9815 33.7634 79.7201 34.3734 79.9989C36.4998 80.9837 38.3734 82.5261 39.7851 84.4608C40.1773 85.0011 40.064 85.7592 39.5237 86.1601C39.2535 86.3431 38.9485 86.4128 38.6609 86.3779ZM1.58094 78.9532C1.57223 78.9532 1.56351 78.9532 1.5548 78.9532C0.892499 78.8661 0.421916 78.2561 0.517775 77.585C0.805352 75.45 1.37179 73.2627 2.19095 71.0666C2.42624 70.4392 3.13211 70.1168 3.75084 70.352C4.37828 70.5873 4.70071 71.2845 4.46542 71.9119C3.70727 73.9337 3.19311 75.9554 2.92296 77.9075C2.8271 78.5698 2.23452 79.0316 1.58094 78.9532ZM5.98174 66.875C5.81617 66.8575 5.6593 66.8053 5.51116 66.7181C4.936 66.3782 4.73557 65.6375 5.07544 65.0537C6.17346 63.1888 7.43705 61.35 8.84879 59.5897C9.26709 59.0668 10.034 58.9797 10.5568 59.398C11.0797 59.8163 11.1668 60.5831 10.7486 61.106C9.40652 62.7792 8.20393 64.5221 7.1669 66.2824C6.91419 66.7094 6.44361 66.9273 5.98174 66.875ZM14.0252 56.7836C13.755 56.7488 13.4936 56.6268 13.2932 56.4176C12.8313 55.9296 12.8487 55.1628 13.3367 54.7009C14.9489 53.1671 16.6134 51.7815 18.2953 50.5877L18.4696 50.4656C19.0186 50.0822 19.7767 50.2217 20.1602 50.7794C20.5436 51.3284 20.4042 52.0865 19.8464 52.47L19.6896 52.5746C18.1035 53.6987 16.5262 55.0059 15.0012 56.4612C14.7311 56.7139 14.3738 56.8185 14.0252 56.7836ZM24.6133 49.4286C24.2124 49.3851 23.8377 49.1323 23.6547 48.7402C23.3671 48.1302 23.6285 47.4069 24.2385 47.128C26.2254 46.1956 28.3256 45.4113 30.4781 44.8013C31.1229 44.6182 31.794 44.993 31.977 45.6378C32.16 46.2827 31.7853 46.9537 31.1404 47.1367C29.1099 47.7119 27.1317 48.4439 25.2668 49.3241C25.049 49.4199 24.8224 49.4548 24.6133 49.4286ZM37.0052 45.8993C36.4649 45.8383 36.0118 45.4113 35.942 44.8448C35.8549 44.1825 36.3342 43.5725 36.9965 43.4941C39.1751 43.2239 41.406 43.1019 43.6282 43.1455C44.2905 43.1542 44.8308 43.7119 44.8221 44.383C44.8134 45.054 44.2556 45.5856 43.5846 45.5768C41.4757 45.542 39.3668 45.6553 37.2928 45.908C37.1969 45.908 37.1011 45.908 37.0052 45.8993Z" fill="#3A7EC1"/>
<path d="M37.4323 124.783C36.8223 124.713 36.3517 124.19 36.3604 123.562C36.3691 122.891 36.9181 122.351 37.5891 122.36C39.637 122.377 41.7198 122.177 43.759 121.75C44.4126 121.61 45.0574 122.037 45.1969 122.691C45.3363 123.345 44.9093 123.989 44.2557 124.129C42.0422 124.591 39.7939 124.809 37.5717 124.791C37.5194 124.791 37.4759 124.791 37.4323 124.783ZM31.0272 123.989C30.9749 123.981 30.9313 123.972 30.879 123.963C28.6394 123.414 26.5131 122.604 24.561 121.558C23.9684 121.244 23.7506 120.504 24.0643 119.911C24.378 119.319 25.1188 119.101 25.7113 119.414C27.4804 120.364 29.415 121.096 31.4542 121.602C32.1077 121.759 32.4999 122.421 32.343 123.066C32.1949 123.676 31.6197 124.059 31.0272 123.989ZM50.016 122.186C49.5977 122.133 49.2229 121.881 49.0399 121.471C48.7698 120.861 49.0487 120.138 49.6674 119.876C51.5497 119.048 53.3797 118.029 55.0965 116.826C55.6455 116.443 56.4037 116.582 56.7871 117.122C57.1705 117.672 57.0398 118.43 56.4908 118.813C54.6433 120.103 52.6826 121.201 50.6521 122.09C50.4343 122.186 50.2251 122.212 50.016 122.186ZM19.7942 117.872C19.5328 117.837 19.2801 117.724 19.0796 117.523C18.3476 116.791 17.6679 116.016 17.0666 115.205C16.3172 114.203 15.6461 113.123 15.0797 111.99C14.7834 111.388 15.0187 110.665 15.62 110.36C16.2126 110.055 16.9446 110.299 17.2496 110.9C17.755 111.903 18.3476 112.861 19.0099 113.75C19.5502 114.465 20.1515 115.162 20.7964 115.807C21.267 116.277 21.2757 117.044 20.7964 117.523C20.5262 117.794 20.1515 117.916 19.7942 117.872ZM14.0165 106.526C13.5024 106.465 13.0579 106.073 12.9621 105.532C12.5786 103.362 12.4654 101.097 12.6222 98.7873C12.6309 98.7088 12.6397 98.6391 12.6571 98.5694C12.6222 98.6566 12.5699 98.7437 12.5089 98.8221C12.1081 99.3624 11.3499 99.467 10.8096 99.0749C8.97086 97.7154 7.3064 96.1817 5.8598 94.5259C5.41537 94.0205 5.46765 93.2536 5.97309 92.8179C6.47853 92.3734 7.2454 92.4257 7.68113 92.9312C9.01444 94.4562 10.5482 95.8679 12.2475 97.1228C12.6571 97.4278 12.8227 97.9333 12.7007 98.3951C12.8924 97.9333 13.3717 97.6195 13.9032 97.6544C14.5917 97.7067 15.0797 98.2818 15.0274 98.9529C14.8793 101.062 14.9838 103.127 15.3324 105.105C15.4457 105.768 15.01 106.395 14.3477 106.508C14.2518 106.534 14.1298 106.534 14.0165 106.526ZM23.097 104.582C23.0709 104.582 23.0447 104.574 23.0186 104.574C20.901 104.182 18.7398 103.484 16.5873 102.5C15.9773 102.221 15.7071 101.497 15.986 100.887C16.2649 100.277 16.9882 100.007 17.5982 100.286C19.5589 101.184 21.5371 101.829 23.4543 102.177C24.1166 102.299 24.5523 102.935 24.4303 103.589C24.317 104.234 23.7332 104.661 23.097 104.582ZM29.537 104.67C29.0228 104.609 28.5871 104.225 28.4825 103.694C28.3605 103.031 28.7875 102.404 29.4498 102.273C30.6524 102.046 31.7505 101.654 32.7178 101.105C33.3626 100.739 33.9988 100.286 34.6088 99.7459C35.1142 99.3014 35.8811 99.3537 36.3168 99.8504C36.7613 100.356 36.7177 101.123 36.2123 101.558C35.4715 102.212 34.6959 102.77 33.9116 103.214C32.709 103.894 31.3583 104.373 29.903 104.652C29.7723 104.678 29.6503 104.687 29.537 104.67ZM39.088 96.6871C38.966 96.6697 38.844 96.6348 38.722 96.5825C38.112 96.3037 37.8419 95.5804 38.1207 94.9703C38.7046 93.7068 39.0706 92.417 39.2187 91.136C39.2885 90.5085 39.3146 89.8811 39.271 89.2711C39.2362 88.6001 39.7416 88.0249 40.4126 87.9901C41.0836 87.9552 41.6588 88.4606 41.6937 89.1317C41.7372 89.8811 41.7111 90.648 41.6239 91.4236C41.4409 92.9573 41.0052 94.4998 40.3168 95.9899C40.1076 96.4779 39.5935 96.7481 39.088 96.6871ZM14.8793 93.7242C14.8096 93.7155 14.7311 93.698 14.6614 93.6806C14.0165 93.4802 13.6592 92.8092 13.8597 92.1643C14.4348 90.282 15.193 88.5042 16.0993 86.8833C16.2474 86.6219 16.413 86.3256 16.596 86.0119C16.9272 85.428 17.6766 85.2363 18.2518 85.5587C18.8356 85.8899 19.0361 86.6306 18.7049 87.2145C18.5219 87.5282 18.3651 87.8071 18.2256 88.0685C17.4065 89.5325 16.718 91.1534 16.1864 92.8702C16.0034 93.4453 15.4457 93.7939 14.8793 93.7242ZM3.0276 89.5848C2.63545 89.5412 2.26945 89.2972 2.07773 88.9138C1.85987 88.4781 1.65944 88.0336 1.47643 87.5805C0.78799 85.9247 0.29998 84.1906 0.0385462 82.4041C-0.0573128 81.7418 0.39584 81.1231 1.05814 81.0272C1.72044 80.9314 2.33916 81.3845 2.43502 82.0468C2.67031 83.6328 3.10604 85.1753 3.71605 86.648C3.88162 87.0489 4.06463 87.4411 4.25635 87.8332C4.55264 88.4345 4.30863 89.1578 3.70733 89.4628C3.48947 89.5761 3.25418 89.611 3.0276 89.5848ZM21.3541 82.6481C21.084 82.6132 20.8312 82.5 20.6308 82.2908C20.1602 81.8115 20.1689 81.0446 20.6482 80.5741C22.5393 78.7266 24.6133 77.5676 26.8181 77.1231C27.4804 76.9924 28.1165 77.4194 28.2472 78.073C28.378 78.7266 27.951 79.3715 27.2974 79.5022C25.5632 79.8508 23.8987 80.8006 22.3476 82.3082C22.0687 82.5784 21.7027 82.683 21.3541 82.6481ZM38.1556 84.4171C37.8331 84.3823 37.5281 84.208 37.319 83.9291C36.1687 82.3518 34.5827 81.0446 32.8485 80.2429C32.2385 79.9641 31.977 79.2408 32.2559 78.6307C32.5348 78.0207 33.2581 77.7593 33.8681 78.0382C35.9944 79.0229 37.868 80.5654 39.2798 82.5C39.6719 83.0403 39.5586 83.7984 39.0183 84.1993C38.7569 84.3823 38.4519 84.452 38.1556 84.4171ZM1.07557 76.9924C1.06685 76.9924 1.05814 76.9924 1.04942 76.9924C0.387122 76.9053 -0.0834551 76.2953 0.0124039 75.6243C0.299981 73.4892 0.866422 71.3019 1.68558 69.1058C1.92087 68.4784 2.62674 68.156 3.24547 68.3913C3.87291 68.6265 4.19534 69.3237 3.96005 69.9511C3.20189 71.9729 2.68774 73.9946 2.41759 75.9467C2.33045 76.609 1.73787 77.0709 1.07557 76.9924ZM5.48508 64.9142C5.31951 64.8968 5.16265 64.8445 5.0145 64.7573C4.43935 64.4175 4.23891 63.6767 4.57878 63.0929C5.6768 61.228 6.9404 59.3892 8.35214 57.6289C8.77043 57.106 9.5373 57.0189 10.0602 57.4372C10.583 57.8555 10.6702 58.6223 10.2519 59.1452C8.90986 60.8184 7.70727 62.5613 6.67025 64.3216C6.41753 64.7486 5.94695 64.9665 5.48508 64.9142ZM13.5285 54.8228C13.2584 54.788 12.9969 54.666 12.7965 54.4568C12.3346 53.9688 12.3521 53.202 12.8401 52.7401C14.4523 51.2063 16.1167 49.8207 17.7986 48.6269L17.9729 48.5049C18.5219 48.1214 19.2801 48.2609 19.6635 48.8186C20.0469 49.3676 19.9075 50.1257 19.3498 50.5092L19.1929 50.6138C17.6069 51.7379 16.0296 53.0451 14.5045 54.5004C14.2344 54.7531 13.8771 54.8577 13.5285 54.8228ZM24.1079 47.4678C23.707 47.4243 23.3323 47.1715 23.1493 46.7794C22.8617 46.1694 23.1231 45.4461 23.7332 45.1672C25.7201 44.2348 27.8202 43.4505 29.9727 42.8405C30.6176 42.6575 31.2886 43.0322 31.4716 43.6771C31.6546 44.3219 31.2799 44.9929 30.635 45.1759C28.6045 45.7511 26.6264 46.4831 24.7615 47.3633C24.5523 47.4591 24.3257 47.494 24.1079 47.4678ZM36.5086 43.9385C35.9683 43.8775 35.5151 43.4505 35.4454 42.884C35.3582 42.2217 35.8375 41.6117 36.4998 41.5333C38.6785 41.2631 40.9094 41.1411 43.1315 41.1847C43.7938 41.1934 44.3341 41.7512 44.3254 42.4222C44.3167 43.0932 43.759 43.6248 43.088 43.616C40.9791 43.5812 38.8702 43.6945 36.7961 43.9472C36.7003 43.9472 36.6044 43.9472 36.5086 43.9385Z" fill="#1F5CBF"/>
<path opacity="0.1" d="M169.526 96.5476L168.881 93.3407L169.805 93.1577L170.728 92.9747L171.373 96.1816L170.449 96.3646L169.526 96.5476ZM171.181 104.826L170.537 101.619L171.46 101.436L172.384 101.253L173.029 104.46L172.105 104.643L171.181 104.826ZM172.846 113.105L172.201 109.898L173.125 109.715L174.049 109.532L174.693 112.739L173.77 112.922L172.846 113.105ZM174.502 121.393L173.857 118.186L174.781 118.003L175.704 117.82L176.349 121.027L175.425 121.21L174.502 121.393ZM176.166 129.671L175.521 126.464L176.445 126.281L177.369 126.098L178.014 129.305L177.09 129.488L176.166 129.671ZM177.822 137.941L177.177 134.734L178.101 134.551L179.024 134.368L179.669 137.575L178.746 137.758L177.822 137.941Z" fill="#232323"/>
<path opacity="0.25" d="M232.157 138.246L231.433 134.656C231.285 133.924 230.571 133.445 229.839 133.593C227.904 133.976 226.022 132.721 225.63 130.795C225.246 128.87 226.501 126.987 228.436 126.595C229.168 126.447 229.647 125.732 229.499 125L228.418 119.615C228.349 119.266 228.139 118.953 227.843 118.752C227.547 118.552 227.181 118.482 226.824 118.552C224.889 118.935 223.007 117.68 222.614 115.754C222.431 114.822 222.614 113.872 223.146 113.079C223.678 112.286 224.479 111.746 225.421 111.554C225.769 111.484 226.083 111.275 226.283 110.979C226.484 110.682 226.553 110.316 226.484 109.959L225.403 104.565C225.255 103.833 224.54 103.362 223.808 103.502C221.874 103.885 219.991 102.639 219.599 100.704C219.216 98.7698 220.471 96.8875 222.397 96.4954C223.129 96.3472 223.608 95.6326 223.46 94.9006L222.388 89.5325C222.318 89.1839 222.109 88.8702 221.813 88.6698C221.516 88.4693 221.15 88.3996 220.793 88.4693C219.852 88.6611 218.911 88.4693 218.109 87.9377C217.316 87.4062 216.776 86.6044 216.584 85.6633C216.401 84.7308 216.584 83.781 217.116 82.9879C217.647 82.1949 218.449 81.6546 219.39 81.4629C220.122 81.3148 220.601 80.6002 220.453 79.8682L219.73 76.2778C218.606 70.6831 213.133 67.0318 207.538 68.1647L172.794 75.1362C169.038 75.8857 166.171 78.6046 165.029 81.9945C164.428 81.2973 163.74 80.6786 162.955 80.1557C160.69 78.6481 157.962 78.1078 155.295 78.6481L53.3013 99.101C50.6259 99.6326 48.3253 101.184 46.8177 103.449C45.3101 105.715 44.7698 108.434 45.3014 111.109L49.7632 133.366C49.8329 133.715 50.0421 134.029 50.3383 134.229C50.6346 134.429 51.0007 134.499 51.3579 134.429C53.371 134.02 55.4276 134.429 57.1443 135.571C58.8524 136.713 60.0201 138.447 60.4297 140.469C60.8306 142.482 60.4297 144.538 59.2881 146.246C58.1465 147.963 56.4123 149.122 54.3906 149.532C54.042 149.601 53.7283 149.81 53.5278 150.107C53.3274 150.403 53.2577 150.769 53.3274 151.126L57.7892 173.374C58.7565 178.211 63.0266 181.566 67.7847 181.566C68.447 181.566 69.118 181.505 69.7977 181.365L171.792 160.913C175.522 160.163 178.371 157.453 179.478 154.072C180.07 154.752 180.75 155.353 181.517 155.867C183.234 157.009 185.212 157.601 187.234 157.601C187.913 157.601 188.611 157.531 189.29 157.392L224.035 150.429C229.638 149.314 233.281 143.841 232.157 138.246Z" fill="#3A7EC1"/>
<path d="M166.363 82.7875L166.467 83.2929L165.544 83.4759L166.189 86.6829L167.112 86.4999L168.132 91.5717L167.208 91.7547L167.853 94.9616L168.777 94.7786L169.796 99.8504L168.873 100.033L169.517 103.24L170.441 103.057L171.461 108.129L170.537 108.312L171.182 111.519L172.106 111.336L173.125 116.408L172.202 116.591L172.846 119.798L173.77 119.615L174.79 124.687L173.866 124.87L174.511 128.077L175.435 127.894L176.454 132.965L175.53 133.148L176.175 136.355L177.099 136.172L178.119 141.244L177.195 141.427L177.84 144.634L178.764 144.451L178.886 145.044C179.844 149.828 176.742 154.49 171.949 155.457L69.9548 175.91C65.1619 176.869 60.4996 173.766 59.541 168.982L55.0792 146.734C59.9855 145.749 63.1575 140.974 62.1728 136.076C61.1881 131.17 56.4213 127.998 51.515 128.983L47.0532 106.726C46.0946 101.942 49.197 97.2797 53.9899 96.3123L155.984 75.8595C160.742 74.9009 165.404 78.0033 166.363 82.7875Z" fill="#BACCE5"/>
<path d="M68.1683 177.444C63.4102 177.444 59.1401 174.089 58.1728 169.252L53.711 147.004C53.6413 146.656 53.711 146.29 53.9114 145.985C54.1118 145.688 54.4168 145.479 54.7741 145.41C56.7872 145.009 58.5301 143.841 59.6717 142.124C60.8133 140.416 61.2141 138.36 60.8133 136.347C60.4124 134.325 59.2446 132.591 57.5279 131.449C55.8112 130.307 53.7633 129.907 51.7415 130.307C51.3929 130.377 51.0269 130.307 50.7219 130.107C50.4256 129.907 50.2165 129.602 50.1468 129.244L45.685 106.988C45.1534 104.321 45.685 101.602 47.2013 99.3362C48.7089 97.0705 51.0182 95.528 53.6848 94.9877L155.679 74.5349C161.186 73.4369 166.581 77.0098 167.687 82.5261L167.792 83.0315C167.914 83.6241 167.626 84.1992 167.121 84.4781L167.252 85.1491C167.818 85.2101 168.315 85.6371 168.428 86.2297L169.448 91.3015C169.517 91.6501 169.448 92.0161 169.247 92.3211C169.125 92.5041 168.968 92.6523 168.777 92.7568L168.916 93.4366C169.125 93.4627 169.334 93.5324 169.517 93.6544C169.814 93.8549 170.023 94.1599 170.093 94.5171L171.112 99.589C171.234 100.182 170.947 100.765 170.441 101.036L170.572 101.707C171.147 101.768 171.635 102.195 171.748 102.787L172.768 107.859C172.838 108.208 172.768 108.574 172.567 108.879C172.445 109.062 172.289 109.21 172.097 109.314L172.228 109.985C172.803 110.046 173.291 110.473 173.404 111.066L174.424 116.138C174.546 116.73 174.258 117.314 173.753 117.584L173.892 118.264C174.458 118.325 174.955 118.752 175.069 119.345L176.088 124.416C176.158 124.765 176.088 125.131 175.888 125.436C175.766 125.619 175.609 125.767 175.417 125.872L175.548 126.543C176.114 126.604 176.611 127.031 176.724 127.623L177.744 132.695C177.814 133.044 177.744 133.41 177.543 133.715C177.421 133.898 177.265 134.046 177.073 134.151L177.204 134.822C177.413 134.848 177.622 134.917 177.805 135.039C178.101 135.24 178.31 135.545 178.38 135.902L179.4 140.974C179.522 141.567 179.234 142.15 178.729 142.421L178.868 143.1C179.077 143.126 179.286 143.196 179.469 143.318C179.766 143.519 179.975 143.824 180.044 144.181L180.166 144.773C180.698 147.44 180.166 150.159 178.65 152.425C177.143 154.69 174.833 156.233 172.167 156.773L70.1726 177.226C69.5103 177.374 68.8306 177.444 68.1683 177.444ZM56.6129 147.71L60.822 168.721C61.6324 172.773 65.5888 175.405 69.641 174.594L171.635 154.141C173.596 153.749 175.295 152.616 176.402 150.943C177.387 149.471 177.805 147.728 177.613 145.993C177.055 145.915 176.585 145.497 176.463 144.922L175.818 141.715C175.696 141.122 175.984 140.547 176.489 140.268L175.975 137.723C175.766 137.697 175.557 137.628 175.374 137.506C175.077 137.305 174.868 137 174.798 136.643L174.153 133.436C174.084 133.087 174.153 132.721 174.354 132.416C174.476 132.233 174.633 132.085 174.824 131.981L174.31 129.436C173.744 129.375 173.247 128.948 173.134 128.355L172.489 125.148C172.419 124.8 172.489 124.434 172.689 124.129C172.811 123.946 172.968 123.798 173.16 123.693L172.646 121.149C172.079 121.088 171.583 120.661 171.469 120.068L170.825 116.861C170.703 116.268 170.99 115.685 171.496 115.414L170.981 112.87C170.406 112.809 169.918 112.382 169.805 111.789L169.16 108.582C169.09 108.234 169.16 107.868 169.361 107.563C169.483 107.38 169.639 107.232 169.831 107.127L169.317 104.582C168.742 104.521 168.254 104.094 168.141 103.502L167.496 100.295C167.374 99.7023 167.661 99.1184 168.167 98.8482L167.652 96.3036C167.443 96.2775 167.234 96.2078 167.051 96.0857C166.755 95.8853 166.546 95.5803 166.476 95.223L165.831 92.0161C165.761 91.6675 165.831 91.3015 166.032 90.9965C166.154 90.8135 166.31 90.6654 166.502 90.5608L165.988 88.0162C165.422 87.9552 164.925 87.5282 164.812 86.9356L164.167 83.7287C164.097 83.3801 164.167 83.0141 164.367 82.7091C164.48 82.5348 164.629 82.3953 164.803 82.2995C163.687 78.6743 159.966 76.4085 156.167 77.1754L54.2164 97.6369C52.2557 98.0291 50.5563 99.162 49.4496 100.835C48.3429 102.5 47.942 104.495 48.3429 106.456L52.5607 127.475C54.8438 127.318 57.1009 127.911 59.0355 129.201C61.3448 130.743 62.9222 133.096 63.4712 135.815C64.0202 138.543 63.4712 141.314 61.9287 143.623C60.6302 145.558 58.7741 146.978 56.6129 147.71Z" fill="#4D7393"/>
<path d="M215.643 81.8202C216.174 84.4868 218.78 86.2123 221.438 85.6807L222.519 91.0662C219.852 91.5978 218.118 94.1947 218.658 96.8613C219.19 99.5279 221.795 101.253 224.453 100.713L225.534 106.107C222.867 106.639 221.133 109.236 221.673 111.902C222.205 114.569 224.81 116.295 227.468 115.763L228.549 121.149C225.882 121.68 224.148 124.277 224.688 126.944C225.22 129.61 227.826 131.336 230.484 130.804L231.207 134.394C232.183 139.266 229.028 144.015 224.148 144.991L189.404 151.963C184.532 152.939 179.783 149.784 178.807 144.904L178.72 144.468L179.643 144.285L178.999 141.078L178.075 141.261L177.055 136.19L177.979 136.007L177.334 132.8L176.41 132.983L175.391 127.911L176.315 127.728L175.67 124.521L174.746 124.704L173.726 119.632L174.65 119.449L174.005 116.242L173.081 116.425L172.062 111.353L172.986 111.17L172.341 107.964L171.417 108.147L170.397 103.075L171.321 102.892L170.676 99.6848L169.753 99.8678L168.733 94.796L169.657 94.613L169.012 91.4061L168.088 91.5891L167.068 86.5173L167.992 86.3343L167.347 83.1273L166.424 83.3103L166.354 82.9618C165.378 78.0904 168.533 73.341 173.413 72.365L208.157 65.3934C213.029 64.4174 217.778 67.572 218.754 72.4521L219.477 76.0425C216.845 76.5566 215.111 79.1535 215.643 81.8202Z" fill="white"/>
<path d="M187.618 153.488C185.596 153.488 183.618 152.895 181.901 151.754C179.6 150.22 178.032 147.884 177.491 145.174L177.404 144.739C177.282 144.146 177.57 143.571 178.075 143.292L177.936 142.612C177.369 142.551 176.873 142.124 176.759 141.532L175.74 136.46C175.67 136.111 175.74 135.745 175.94 135.44C176.062 135.257 176.219 135.109 176.411 135.005L176.28 134.334C176.071 134.307 175.862 134.238 175.679 134.116C175.382 133.915 175.173 133.61 175.104 133.253L174.084 128.181C173.962 127.589 174.25 127.005 174.755 126.734L174.624 126.063C174.415 126.037 174.206 125.968 174.023 125.846C173.727 125.645 173.518 125.34 173.448 124.983L172.428 119.911C172.306 119.318 172.594 118.735 173.099 118.464L172.96 117.785C172.393 117.724 171.897 117.297 171.783 116.704L170.764 111.632C170.642 111.04 170.929 110.465 171.435 110.186L171.304 109.515C170.738 109.454 170.241 109.027 170.128 108.434L169.108 103.362C168.986 102.77 169.274 102.195 169.779 101.916L169.648 101.245C169.082 101.184 168.585 100.757 168.472 100.164L167.452 95.0923C167.383 94.7437 167.452 94.3777 167.653 94.0727C167.775 93.8897 167.932 93.7416 168.123 93.637L167.984 92.9573C167.775 92.9311 167.566 92.8614 167.383 92.7394C167.086 92.539 166.877 92.234 166.807 91.8767L165.788 86.8048C165.666 86.2123 165.953 85.6284 166.459 85.3582L166.328 84.6872C166.119 84.6611 165.91 84.5914 165.727 84.4694C165.431 84.2689 165.221 83.9639 165.152 83.6066L165.082 83.2581C164.542 80.5479 165.082 77.7854 166.616 75.4848C168.149 73.1842 170.485 71.6155 173.195 71.0752L207.94 64.1037C213.543 62.9795 219.007 66.6222 220.131 72.2168L220.854 75.8072C221.003 76.5392 220.523 77.2538 219.791 77.4019C218.859 77.5937 218.048 78.134 217.517 78.927C216.985 79.72 216.802 80.6699 216.985 81.6023C217.369 83.5369 219.26 84.7918 221.194 84.3997C221.926 84.2602 222.641 84.7308 222.789 85.4628L223.87 90.8484C224.018 91.5804 223.539 92.295 222.807 92.4431C220.872 92.8265 219.617 94.7176 220.009 96.6522C220.192 97.5846 220.741 98.3864 221.534 98.9179C222.327 99.4495 223.286 99.6325 224.218 99.4495C224.567 99.3798 224.933 99.4495 225.238 99.65C225.534 99.8504 225.743 100.155 225.813 100.513L226.894 105.907C227.042 106.639 226.562 107.354 225.83 107.502C223.896 107.885 222.641 109.776 223.024 111.702C223.408 113.637 225.29 114.892 227.233 114.499C227.974 114.36 228.68 114.831 228.828 115.563L229.909 120.948C229.979 121.297 229.909 121.663 229.708 121.968C229.508 122.264 229.203 122.473 228.846 122.543C226.911 122.926 225.656 124.817 226.04 126.743C226.231 127.676 226.772 128.486 227.565 129.018C228.358 129.549 229.307 129.732 230.249 129.549C230.981 129.41 231.695 129.88 231.843 130.612L232.567 134.203C233.691 139.797 230.048 145.27 224.454 146.394L189.709 153.357C188.994 153.418 188.306 153.488 187.618 153.488ZM180.35 145.436C180.873 147.091 181.936 148.512 183.4 149.497C185.099 150.63 187.138 151.03 189.143 150.63L223.887 143.667C228.018 142.839 230.711 138.795 229.883 134.665L229.403 132.259C228.218 132.242 227.059 131.885 226.048 131.205C224.654 130.273 223.695 128.861 223.373 127.214C222.78 124.277 224.358 121.401 226.998 120.242L226.388 117.227C223.504 117.175 220.942 115.118 220.349 112.181C219.756 109.245 221.334 106.369 223.974 105.21L223.364 102.186C220.48 102.134 217.918 100.086 217.325 97.1489C216.733 94.2121 218.31 91.3277 220.95 90.1686L220.34 87.1534C217.456 87.1011 214.894 85.0445 214.301 82.1078C213.97 80.4694 214.301 78.7963 215.234 77.3932C215.905 76.3823 216.837 75.6068 217.926 75.1275L217.447 72.7223C216.619 68.5829 212.576 65.8989 208.445 66.7267L173.701 73.6983C169.866 74.4652 167.278 77.9858 167.583 81.794C167.775 81.8202 167.958 81.8986 168.123 82.0032C168.42 82.2036 168.629 82.5086 168.698 82.8659L169.343 86.0728C169.465 86.6654 169.178 87.2493 168.672 87.5194L169.186 90.0641C169.396 90.0902 169.605 90.1599 169.788 90.2819C170.084 90.4823 170.293 90.7874 170.363 91.1446L171.008 94.3516C171.077 94.7001 171.008 95.0662 170.807 95.3712C170.685 95.5542 170.528 95.7023 170.337 95.8069L170.851 98.3515C171.417 98.4125 171.914 98.8395 172.027 99.4321L172.672 102.639C172.794 103.232 172.507 103.807 172.001 104.086L172.515 106.63C173.082 106.691 173.579 107.118 173.692 107.711L174.337 110.909C174.459 111.502 174.171 112.077 173.666 112.356L174.18 114.9C174.746 114.961 175.243 115.388 175.356 115.981L176.001 119.188C176.123 119.78 175.836 120.364 175.33 120.634L175.844 123.179C176.053 123.205 176.263 123.275 176.446 123.397C176.742 123.597 176.951 123.902 177.021 124.26L177.666 127.467C177.788 128.059 177.5 128.643 176.995 128.913L177.509 131.458C177.718 131.484 177.927 131.554 178.11 131.676C178.406 131.876 178.615 132.181 178.685 132.538L179.33 135.745C179.4 136.094 179.33 136.46 179.13 136.765C179.008 136.948 178.851 137.096 178.659 137.201L179.173 139.745C179.74 139.806 180.236 140.233 180.35 140.826L180.995 144.033C181.064 144.381 180.995 144.747 180.794 145.052C180.672 145.192 180.524 145.331 180.35 145.436Z" fill="#4D7393"/>
<path d="M67.4008 106.465L67.8888 108.879L64.8649 109.489L66.8256 119.284L63.9237 119.868L61.9629 110.072L58.9216 110.682L58.4336 108.269L67.4008 106.465Z" fill="white"/>
<path d="M71.479 105.646L73.9277 117.863L71.0694 118.438L68.6206 106.221L71.479 105.646Z" fill="white"/>
<path d="M84.6989 107.728L81.736 108.521C81.3526 106.805 80.5073 106.081 79.2001 106.343C77.7012 106.639 77.2219 108.12 77.7535 110.778C78.0585 112.312 78.4681 113.314 78.991 113.776C79.5051 114.238 80.1326 114.395 80.8559 114.255C82.041 114.02 82.6075 113.105 82.5639 111.51L85.37 111.127C85.4832 112.626 85.1608 113.846 84.4027 114.787C83.6445 115.728 82.6075 116.329 81.2916 116.6C79.6707 116.922 78.2503 116.626 77.0128 115.719C75.7753 114.804 74.9649 113.367 74.564 111.397C74.198 109.55 74.381 107.946 75.1218 106.578C75.8625 105.21 77.0825 104.347 78.7731 104.007C81.7273 103.397 83.6968 104.643 84.6989 107.728Z" fill="white"/>
<path d="M88.2459 102.29L89.3962 108.033L92.0716 101.524L94.8079 100.975L92.7513 105.924L97.9974 113.044L94.8428 113.68L91.3395 108.861L90.1282 111.711L90.686 114.508L87.8799 115.075L85.4312 102.857L88.2459 102.29Z" fill="white"/>
<path d="M106.18 101.114L100.368 102.282L100.873 104.792L105.448 103.876L105.91 106.177L101.335 107.092L101.867 109.759L107.679 108.591L108.167 111.005L99.4439 112.757L96.9951 100.539L105.718 98.7873L106.18 101.114Z" fill="white"/>
<path d="M115.173 96.8875L115.661 99.3014L112.637 99.9114L114.598 109.706L111.696 110.29L109.735 100.495L106.694 101.105L106.206 98.6914L115.173 96.8875Z" fill="white"/>
<path d="M153.517 118.474C160.344 111.648 160.344 100.579 153.517 93.7526C146.691 86.9258 135.622 86.9258 128.796 93.7526C121.969 100.579 121.969 111.648 128.796 118.474C135.622 125.301 146.691 125.301 153.517 118.474Z" fill="white"/>
<path d="M113.562 131.179L69.5452 140.007C68.0986 140.294 66.6781 139.353 66.3906 137.906C66.103 136.46 67.0442 135.039 68.4908 134.752L112.507 125.924C113.954 125.636 115.375 126.578 115.662 128.024C115.958 129.471 115.009 130.891 113.562 131.179Z" fill="#FFDCA4"/>
<path d="M162.371 133.445L71.4622 151.675C70.0156 151.963 68.5951 151.022 68.3076 149.575C68.02 148.128 68.9611 146.708 70.4077 146.42L161.317 128.19C162.764 127.902 164.184 128.843 164.472 130.29C164.759 131.737 163.818 133.157 162.371 133.445Z" fill="#FFDCA4"/>
<path d="M164.698 145.035L73.7889 163.266C72.3423 163.553 70.9218 162.612 70.6342 161.165C70.3466 159.719 71.2878 158.298 72.7344 158.011L163.644 139.78C165.09 139.492 166.511 140.434 166.798 141.88C167.086 143.327 166.136 144.747 164.698 145.035Z" fill="#FFDCA4"/>
<path d="M211.286 84.0511L177.796 90.7699C176.611 91.0052 175.452 90.2296 175.217 89.0532C174.982 87.868 175.757 86.709 176.934 86.4737L210.423 79.7548C211.608 79.5196 212.768 80.2951 213.003 81.4716C213.238 82.6568 212.471 83.8158 211.286 84.0511Z" fill="#E4ECF9"/>
<path d="M213.16 93.4191L179.67 100.138C178.485 100.373 177.326 99.5977 177.09 98.4212C176.855 97.236 177.631 96.077 178.807 95.8417L212.297 89.1229C213.482 88.8876 214.641 89.6632 214.876 90.8396C215.12 92.0161 214.345 93.1751 213.16 93.4191Z" fill="#1F5CBF"/>
<path d="M215.042 102.778L181.552 109.497C180.367 109.733 179.208 108.957 178.973 107.781C178.737 106.595 179.513 105.436 180.689 105.201L214.179 98.4822C215.364 98.2469 216.523 99.0225 216.759 100.199C216.994 101.375 216.227 102.543 215.042 102.778Z" fill="#E4ECF9"/>
<path d="M218.798 121.506L185.308 128.225C184.123 128.46 182.964 127.684 182.729 126.508C182.493 125.323 183.269 124.164 184.445 123.928L217.935 117.21C219.12 116.974 220.279 117.75 220.515 118.926C220.75 120.103 219.974 121.262 218.798 121.506Z" fill="#E4ECF9"/>
<path d="M220.671 130.865L187.182 137.584C185.996 137.819 184.837 137.044 184.602 135.867C184.367 134.682 185.142 133.523 186.319 133.288L219.809 126.569C220.994 126.334 222.153 127.109 222.388 128.286C222.632 129.462 221.856 130.63 220.671 130.865Z" fill="#E4ECF9"/>
<path opacity="0.1" d="M166.999 183.98H166.058H165.117V180.703H166.058H166.999V183.98ZM166.999 175.527H166.058H165.117V172.259H166.058H166.999V175.527ZM166.999 167.091H166.058H165.117V163.823H166.058H166.999V167.091ZM166.999 158.647H166.058H165.117V155.37H166.058H166.999V158.647ZM166.999 150.194H166.058H165.117V146.926H166.058H166.999V150.194ZM166.999 141.75H166.058H165.117V138.482H166.058H166.999V141.75ZM166.999 133.314H166.058H165.117V130.037H166.058H166.999V133.314ZM166.999 124.861H166.058H165.117V121.593H166.058H166.999V124.861Z" fill="#232323"/>
<path opacity="0.25" d="M214.161 127.894C214.911 127.894 215.512 127.284 215.512 126.543V122.883C215.512 117.175 210.867 112.53 205.159 112.53H169.717C165.883 112.53 162.545 114.63 160.75 117.732C158.999 114.63 155.678 112.53 151.87 112.53H47.8457C42.2162 112.53 37.6411 117.105 37.6411 122.726V145.427C37.6411 146.176 38.2511 146.778 38.9919 146.778C43.2358 146.778 46.6954 150.229 46.6954 154.481C46.6954 158.734 43.2445 162.185 38.9919 162.185C38.2424 162.185 37.6411 162.795 37.6411 163.536V186.228C37.6411 191.849 42.2162 196.424 47.8457 196.424H151.87C155.678 196.424 158.999 194.324 160.75 191.221C162.537 194.324 165.883 196.424 169.717 196.424H205.159C210.867 196.424 215.512 191.779 215.512 186.071V182.411C215.512 181.662 214.902 181.06 214.161 181.06C212.192 181.06 210.588 179.457 210.588 177.488C210.588 175.518 212.192 173.923 214.161 173.923C214.911 173.923 215.512 173.313 215.512 172.573V167.082C215.512 166.333 214.902 165.732 214.161 165.732C212.192 165.732 210.588 164.128 210.588 162.159C210.588 160.189 212.192 158.595 214.161 158.595C214.911 158.595 215.512 157.985 215.512 157.244V151.745C215.512 150.996 214.902 150.394 214.161 150.394C212.192 150.394 210.588 148.791 210.588 146.83C210.588 144.861 212.192 143.257 214.161 143.257C214.911 143.257 215.512 142.647 215.512 141.906V136.416C215.512 135.667 214.902 135.066 214.161 135.066C212.192 135.066 210.588 133.462 210.588 131.493C210.588 129.497 212.192 127.894 214.161 127.894Z" fill="#3A7EC1"/>
<path d="M164.436 119.083V119.597H163.495V122.865H164.436V128.042H163.495V131.318H164.436V136.495H163.495V139.763H164.436V144.939H163.495V148.207H164.436V153.383H163.495V156.66H164.436V161.836H163.495V165.104H164.436V170.281H163.495V173.549H164.436V178.725H163.495V182.002H164.436V182.603C164.436 187.483 160.471 191.448 155.583 191.448H51.5668C46.678 191.448 42.7129 187.483 42.7129 182.603V159.91C47.715 159.91 51.7672 155.85 51.7672 150.856C51.7672 145.854 47.715 141.802 42.7129 141.802V119.101C42.7129 114.221 46.678 110.255 51.5668 110.255H155.591C160.48 110.238 164.436 114.203 164.436 119.083Z" fill="white"/>
<path d="M155.591 192.781H51.5669C45.9374 192.781 41.3623 188.206 41.3623 182.585V159.893C41.3623 159.144 41.9723 158.542 42.713 158.542C46.957 158.542 50.4166 155.091 50.4166 150.839C50.4166 146.595 46.9657 143.135 42.713 143.135C41.9636 143.135 41.3623 142.525 41.3623 141.784V119.083C41.3623 113.462 45.9374 108.887 51.5669 108.887H155.591C161.221 108.887 165.796 113.462 165.796 119.083V119.597C165.796 120.199 165.395 120.713 164.855 120.887V121.576C165.404 121.75 165.796 122.264 165.796 122.865V128.042C165.796 128.643 165.395 129.157 164.855 129.331V130.029C165.404 130.203 165.796 130.717 165.796 131.318V136.495C165.796 137.096 165.395 137.61 164.855 137.784V138.473C165.404 138.647 165.796 139.161 165.796 139.763V144.939C165.796 145.54 165.395 146.054 164.855 146.229V146.917C165.404 147.092 165.796 147.606 165.796 148.207V153.383C165.796 153.985 165.395 154.499 164.855 154.673V155.37C165.404 155.545 165.796 156.059 165.796 156.66V161.836C165.796 162.438 165.395 162.952 164.855 163.126V163.815C165.404 163.989 165.796 164.503 165.796 165.104V170.281C165.796 170.882 165.395 171.396 164.855 171.57V172.259C165.404 172.433 165.796 172.947 165.796 173.549V178.725C165.796 179.326 165.395 179.84 164.855 180.015V180.712C165.404 180.886 165.796 181.4 165.796 182.002V182.603C165.796 188.206 161.212 192.781 155.591 192.781ZM44.0638 161.157V182.585C44.0638 186.716 47.4276 190.071 51.5582 190.071H155.583C159.487 190.071 162.702 187.073 163.051 183.257C162.519 183.074 162.136 182.568 162.136 181.975V178.699C162.136 178.098 162.537 177.583 163.077 177.409V174.812C162.528 174.638 162.136 174.124 162.136 173.522V170.255C162.136 169.653 162.537 169.139 163.077 168.965V166.368C162.528 166.194 162.136 165.679 162.136 165.078V161.81C162.136 161.209 162.537 160.695 163.077 160.52V157.941C162.528 157.767 162.136 157.253 162.136 156.651V153.375C162.136 152.773 162.537 152.259 163.077 152.085V149.488C162.528 149.314 162.136 148.8 162.136 148.198V144.93C162.136 144.329 162.537 143.815 163.077 143.641V141.044C162.528 140.869 162.136 140.355 162.136 139.754V136.486C162.136 135.885 162.537 135.371 163.077 135.196V132.599C162.528 132.425 162.136 131.911 162.136 131.31V128.033C162.136 127.432 162.537 126.918 163.077 126.743V124.146C162.528 123.972 162.136 123.458 162.136 122.857V119.597C162.136 119.005 162.511 118.508 163.042 118.316C162.659 114.543 159.461 111.589 155.583 111.589H51.5669C47.4363 111.589 44.0725 114.953 44.0725 119.075V140.512C49.1705 141.174 53.1268 145.549 53.1268 150.83C53.1181 156.12 49.1705 160.494 44.0638 161.157Z" fill="#4D7393"/>
<path d="M212.95 127.815C212.95 130.543 215.163 132.739 217.874 132.739V138.229C215.155 138.229 212.95 140.434 212.95 143.153C212.95 145.871 215.163 148.068 217.874 148.068V153.566C215.155 153.566 212.95 155.771 212.95 158.481C212.95 161.209 215.163 163.405 217.874 163.405V168.895C215.155 168.895 212.95 171.1 212.95 173.81C212.95 176.538 215.163 178.734 217.874 178.734V182.394C217.874 187.37 213.847 191.396 208.871 191.396H173.43C168.454 191.396 164.428 187.37 164.428 182.394V181.949H165.369V178.673H164.436V173.496H165.378V170.228H164.436V165.087H165.378V161.819H164.436V156.643H165.378V153.366H164.436V148.19H165.378V144.922H164.436V139.745H165.378V136.477H164.436V131.301H165.378V128.024H164.436V122.848H165.378V119.597H164.436V119.24C164.436 114.264 168.463 110.238 173.438 110.238H208.88C213.856 110.238 217.882 114.264 217.882 119.24V122.9C215.163 122.9 212.95 125.105 212.95 127.815Z" fill="#1F5CBF"/>
<path d="M208.88 192.781H173.439C167.731 192.781 163.086 188.137 163.086 182.429V181.984C163.086 181.383 163.487 180.869 164.027 180.694V179.997C163.478 179.823 163.086 179.309 163.086 178.708V173.531C163.086 172.93 163.487 172.416 164.027 172.241V171.553C163.478 171.379 163.086 170.865 163.086 170.263V165.087C163.086 164.486 163.487 163.971 164.027 163.797V163.109C163.478 162.934 163.086 162.42 163.086 161.819V156.643C163.086 156.041 163.487 155.527 164.027 155.353V154.656C163.478 154.481 163.086 153.967 163.086 153.366V148.19C163.086 147.588 163.487 147.074 164.027 146.9V146.211C163.478 146.037 163.086 145.523 163.086 144.922V139.745C163.086 139.144 163.487 138.63 164.027 138.455V137.767C163.478 137.593 163.086 137.079 163.086 136.477V131.301C163.086 130.7 163.487 130.185 164.027 130.011V129.314C163.478 129.14 163.086 128.626 163.086 128.024V122.848C163.086 122.247 163.487 121.732 164.027 121.558V120.87C163.478 120.695 163.086 120.181 163.086 119.58V119.223C163.086 113.515 167.731 108.87 173.439 108.87H208.88C214.588 108.87 219.233 113.515 219.233 119.223V122.883C219.233 123.632 218.623 124.233 217.882 124.233C215.913 124.233 214.31 125.837 214.31 127.798C214.31 129.767 215.913 131.371 217.882 131.371C218.632 131.371 219.233 131.981 219.233 132.721V138.211C219.233 138.961 218.623 139.562 217.882 139.562C215.913 139.562 214.31 141.166 214.31 143.135C214.31 145.105 215.913 146.699 217.882 146.699C218.632 146.699 219.233 147.309 219.233 148.05V153.549C219.233 154.298 218.623 154.9 217.882 154.9C215.913 154.9 214.31 156.503 214.31 158.464C214.31 160.433 215.913 162.037 217.882 162.037C218.632 162.037 219.233 162.647 219.233 163.388V168.878C219.233 169.627 218.623 170.228 217.882 170.228C215.913 170.228 214.31 171.832 214.31 173.793C214.31 175.762 215.913 177.366 217.882 177.366C218.632 177.366 219.233 177.976 219.233 178.716V182.376C219.233 188.137 214.588 192.781 208.88 192.781ZM165.84 183.256C166.258 187.082 169.508 190.071 173.439 190.071H208.88C213.098 190.071 216.532 186.638 216.532 182.42V179.971C213.717 179.352 211.608 176.834 211.608 173.836C211.608 170.838 213.717 168.329 216.532 167.71V164.634C213.717 164.015 211.608 161.496 211.608 158.499C211.608 155.501 213.717 152.991 216.532 152.372V149.288C213.717 148.669 211.608 146.159 211.608 143.161C211.608 140.163 213.717 137.645 216.532 137.026V133.95C213.717 133.331 211.608 130.813 211.608 127.815C211.608 124.817 213.717 122.308 216.532 121.689V119.24C216.532 115.022 213.098 111.589 208.88 111.589H173.439C169.535 111.589 166.302 114.534 165.848 118.316C166.371 118.508 166.737 119.005 166.737 119.589V122.857C166.737 123.458 166.336 123.972 165.796 124.146V126.743C166.345 126.918 166.737 127.432 166.737 128.033V131.31C166.737 131.911 166.336 132.425 165.796 132.599V135.196C166.345 135.371 166.737 135.885 166.737 136.486V139.754C166.737 140.355 166.336 140.869 165.796 141.044V143.641C166.345 143.815 166.737 144.329 166.737 144.93V148.198C166.737 148.8 166.336 149.314 165.796 149.488V152.085C166.345 152.259 166.737 152.773 166.737 153.375V156.651C166.737 157.253 166.336 157.767 165.796 157.941V160.538C166.345 160.712 166.737 161.226 166.737 161.828V165.096C166.737 165.697 166.336 166.211 165.796 166.385V168.982C166.345 169.156 166.737 169.671 166.737 170.272V173.54C166.737 174.141 166.336 174.655 165.796 174.83V177.427C166.345 177.601 166.737 178.115 166.737 178.716V181.993C166.737 182.568 166.363 183.073 165.84 183.256Z" fill="#4D7393"/>
<path d="M62.7567 122.839V125.305H59.6718V135.301H56.7176V125.305H53.6152V122.839H62.7567Z" fill="#BACCE5"/>
<path d="M66.9219 122.839V135.301H64.0112V122.839H66.9219Z" fill="#BACCE5"/>
<path d="M79.4709 127.475L76.4121 127.667C76.3686 125.907 75.6801 125.026 74.3555 125.026C72.8305 125.026 72.0723 126.377 72.0723 129.087C72.0723 130.647 72.2815 131.71 72.6911 132.268C73.1094 132.826 73.6845 133.105 74.4252 133.105C75.6366 133.105 76.3686 132.32 76.6387 130.752L79.4709 130.926C79.2879 132.416 78.7302 133.549 77.8065 134.325C76.8827 135.1 75.7411 135.493 74.3991 135.493C72.7521 135.493 71.41 134.926 70.3817 133.785C69.3534 132.643 68.8306 131.074 68.8306 129.07C68.8306 127.188 69.3273 125.654 70.3294 124.451C71.3229 123.249 72.6911 122.656 74.4165 122.656C77.4056 122.647 79.0875 124.26 79.4709 127.475Z" fill="#BACCE5"/>
<path d="M84.0111 122.839V128.695L87.9152 122.839H90.7125L87.7235 127.284L91.462 135.292H88.2463L85.7627 129.88L84.0111 132.434V135.292H81.144V122.83H84.0111V122.839Z" fill="#BACCE5"/>
<path d="M101.832 125.209H95.8975V127.763H100.56V130.107H95.8975V132.826H101.832V135.292H92.9346V122.83H101.832V125.209Z" fill="#BACCE5"/>
<path d="M111.479 122.839V125.305H108.394V135.301H105.44V125.305H102.338V122.839H111.479Z" fill="#BACCE5"/>
<path d="M135.138 154.481C144.793 154.481 152.62 146.655 152.62 137C152.62 127.346 144.793 119.519 135.138 119.519C125.484 119.519 117.657 127.346 117.657 137C117.657 146.655 125.484 154.481 135.138 154.481Z" fill="#E4ECF9"/>
<path d="M103.157 156.146H58.2686C56.7959 156.146 55.5933 154.943 55.5933 153.47C55.5933 151.998 56.7959 150.795 58.2686 150.795H103.157C104.63 150.795 105.832 151.998 105.832 153.47C105.841 154.943 104.63 156.146 103.157 156.146Z" fill="#E4ECF9"/>
<path d="M150.563 167.963H57.8414C56.3686 167.963 55.166 166.76 55.166 165.287C55.166 163.815 56.3686 162.612 57.8414 162.612H150.563C152.036 162.612 153.239 163.815 153.239 165.287C153.247 166.76 152.036 167.963 150.563 167.963Z" fill="#E4ECF9"/>
<path d="M150.563 179.788H57.8414C56.3686 179.788 55.166 178.586 55.166 177.113C55.166 175.64 56.3686 174.437 57.8414 174.437H150.563C152.036 174.437 153.239 175.64 153.239 177.113C153.247 178.577 152.036 179.788 150.563 179.788Z" fill="#E4ECF9"/>
<path d="M208.236 129.157H174.084C172.881 129.157 171.888 128.172 171.888 126.961C171.888 125.758 172.872 124.765 174.084 124.765H208.236C209.438 124.765 210.432 125.75 210.432 126.961C210.432 128.172 209.438 129.157 208.236 129.157Z" fill="white"/>
<path d="M208.236 138.708H174.084C172.881 138.708 171.888 137.723 171.888 136.512C171.888 135.31 172.872 134.316 174.084 134.316H208.236C209.438 134.316 210.432 135.301 210.432 136.512C210.432 137.715 209.438 138.708 208.236 138.708Z" fill="white"/>
<path d="M208.236 148.251H174.084C172.881 148.251 171.888 147.266 171.888 146.054C171.888 144.852 172.872 143.858 174.084 143.858H208.236C209.438 143.858 210.432 144.843 210.432 146.054C210.432 147.266 209.438 148.251 208.236 148.251Z" fill="white"/>
<path d="M208.236 167.353H174.084C172.881 167.353 171.888 166.368 171.888 165.157C171.888 163.954 172.872 162.961 174.084 162.961H208.236C209.438 162.961 210.432 163.945 210.432 165.157C210.432 166.359 209.438 167.353 208.236 167.353Z" fill="white"/>
<path d="M208.236 176.895H174.084C172.881 176.895 171.888 175.91 171.888 174.699C171.888 173.496 172.872 172.503 174.084 172.503H208.236C209.438 172.503 210.432 173.488 210.432 174.699C210.432 175.91 209.438 176.895 208.236 176.895Z" fill="white"/>
<path opacity="0.25" d="M85.9454 25.856C74.4336 14.745 56.0984 15.0588 44.9788 26.5706C33.8678 38.0824 34.1815 56.4176 45.6933 67.5372C57.2051 78.6482 75.5404 78.3345 86.66 66.8227C97.7709 55.3109 97.4572 36.9756 85.9454 25.856Z" fill="#3A7EC1"/>
<path d="M88.4992 61.4474C99.8113 50.1352 99.8113 31.7946 88.4992 20.4825C77.187 9.17031 58.8464 9.17031 47.5342 20.4825C36.2221 31.7946 36.2221 50.1352 47.5342 61.4474C58.8464 72.7595 77.187 72.7596 88.4992 61.4474Z" fill="white"/>
<path d="M68.0026 71.2932C60.1073 71.2932 52.6477 68.278 46.9484 62.7791C34.9225 51.1628 34.5826 31.93 46.199 19.904C51.8285 14.074 59.384 10.7887 67.4797 10.6492C67.6627 10.6492 67.837 10.6405 68.02 10.6405C75.9153 10.6405 83.3749 13.6557 89.0741 19.1546C94.9041 24.7841 98.1894 32.3395 98.3289 40.4353C98.4683 48.531 95.4531 56.1997 89.8236 62.0297C84.194 67.8597 76.6386 71.145 68.5428 71.2844C68.3598 71.2932 68.1856 71.2932 68.0026 71.2932ZM68.0287 13.3507C67.8631 13.3507 67.6975 13.3507 67.532 13.3594C60.1595 13.4902 53.2751 16.4792 48.151 21.7863C37.5717 32.7404 37.8767 50.2565 48.8307 60.8358C54.1379 65.9599 61.1268 68.6788 68.4993 68.583C75.8717 68.4522 82.7561 65.4632 87.8802 60.1561C93.0043 54.849 95.7581 47.8687 95.6274 40.4875C95.4967 33.1151 92.5076 26.2307 87.2005 21.1066C82.0154 16.0958 75.2268 13.3507 68.0287 13.3507Z" fill="#4D7393"/>
<path d="M68.6993 51.8687C65.6405 52.0604 62.634 50.9449 60.4293 48.8273C56.5252 45.054 56.0546 39.0584 59.0698 34.736L61.5099 37.0977L64.3769 25.612L52.9958 28.8712L55.6189 31.4071C50.7998 37.638 51.3401 46.6487 57.1352 52.2521C60.2898 55.3022 64.6122 56.8882 68.9956 56.618C69.6143 56.5832 70.1546 56.313 70.5555 55.8947C70.9999 55.4329 71.2613 54.788 71.2178 54.0996C71.1306 52.7837 70.0065 51.7902 68.6993 51.8687Z" fill="#1F5CBF"/>
<path d="M78.9044 29.6991C75.68 26.5793 71.2618 25.002 66.7913 25.3506C65.4841 25.4551 64.5081 26.5967 64.6127 27.9039C64.7172 29.2111 65.8588 30.1871 67.166 30.0825C70.2858 29.8385 73.362 30.9452 75.6103 33.1151C79.5144 36.8885 79.985 42.8841 76.9698 47.2064L74.5297 44.8448L71.6627 56.3305L83.0437 53.0712L80.4207 50.5353C85.2311 44.3045 84.6995 35.2938 78.9044 29.6991Z" fill="#1F5CBF"/>
<path d="M167.692 23.6008C170.935 20.3576 170.935 15.0993 167.692 11.856C164.449 8.61282 159.19 8.61283 155.947 11.8561C152.704 15.0993 152.704 20.3576 155.947 23.6008C159.19 26.844 164.449 26.844 167.692 23.6008Z" fill="#BACCE5"/>
<path d="M13.7985 177.697C19.1745 177.697 23.5325 173.339 23.5325 167.963C23.5325 162.587 19.1745 158.229 13.7985 158.229C8.42254 158.229 4.06445 162.587 4.06445 167.963C4.06445 173.339 8.42254 177.697 13.7985 177.697Z" fill="#1F5CBF"/>
<path d="M148.088 215.221C150.933 215.221 153.238 212.915 153.238 210.071C153.238 207.226 150.933 204.921 148.088 204.921C145.244 204.921 142.938 207.226 142.938 210.071C142.938 212.915 145.244 215.221 148.088 215.221Z" fill="#BACCE5"/>
<path d="M234.85 86.9879C237.694 86.9879 240 84.682 240 81.8376C240 78.9932 237.694 76.6874 234.85 76.6874C232.006 76.6874 229.7 78.9932 229.7 81.8376C229.7 84.682 232.006 86.9879 234.85 86.9879Z" fill="#1F5CBF"/>
</svg>
