<svg width="171" height="40" viewBox="0 0 171 40" fill="none" xmlns="http://www.w3.org/2000/svg">
<path d="M158.841 8.2805C160.389 8.2805 161.751 8.59274 162.925 9.2172C164.099 9.81669 165.023 10.6035 165.697 11.5777V8.61772H170.98V29.5249C170.98 31.4483 170.593 33.1593 169.819 34.658C169.044 36.1817 167.883 37.3807 166.334 38.255C164.785 39.1542 162.912 39.6038 160.714 39.6038C157.766 39.6038 155.343 38.9169 153.445 37.5431C151.572 36.1692 150.51 34.2958 150.26 31.9229H155.468C155.743 32.8721 156.33 33.6214 157.229 34.1709C158.154 34.7455 159.265 35.0327 160.564 35.0327C162.088 35.0327 163.324 34.5706 164.273 33.6464C165.223 32.7472 165.697 31.3733 165.697 29.5249V26.3026C165.023 27.2768 164.086 28.0886 162.887 28.7381C161.713 29.3875 160.364 29.7122 158.841 29.7122C157.092 29.7122 155.493 29.2626 154.045 28.3634C152.596 27.4642 151.447 26.2027 150.598 24.5791C149.773 22.9305 149.361 21.0446 149.361 18.9214C149.361 16.8232 149.773 14.9623 150.598 13.3387C151.447 11.7151 152.583 10.4661 154.007 9.59189C155.456 8.71763 157.067 8.2805 158.841 8.2805ZM165.697 18.9964C165.697 17.7225 165.447 16.6359 164.948 15.7367C164.448 14.8124 163.774 14.113 162.925 13.6384C162.075 13.1389 161.164 12.8891 160.189 12.8891C159.215 12.8891 158.316 13.1264 157.492 13.601C156.667 14.0756 155.993 14.775 155.468 15.6992C154.969 16.5984 154.719 17.6725 154.719 18.9214C154.719 20.1704 154.969 21.2694 155.468 22.2186C155.993 23.1428 156.667 23.8547 157.492 24.3543C158.341 24.8539 159.24 25.1037 160.189 25.1037C161.164 25.1037 162.075 24.8664 162.925 24.3918C163.774 23.8922 164.448 23.1928 164.948 22.2936C165.447 21.3694 165.697 20.2703 165.697 18.9964Z" fill="#231F20"/>
<path d="M137.441 8.31812C139.914 8.31812 141.912 9.10495 143.436 10.6786C144.96 12.2273 145.722 14.4004 145.722 17.1981V29.3752H140.476V17.9099C140.476 16.2613 140.064 14.9999 139.24 14.1257C138.415 13.2264 137.291 12.7768 135.868 12.7768C134.419 12.7768 133.27 13.2264 132.42 14.1257C131.596 14.9999 131.184 16.2613 131.184 17.9099V29.3752H125.938V8.61786H131.184V11.2032C131.883 10.3039 132.77 9.60452 133.844 9.10495C134.943 8.58039 136.142 8.31812 137.441 8.31812Z" fill="#231F20"/>
<path d="M120.756 8.61794V29.3752H115.51V8.61794H120.756Z" fill="#231F20"/>
<path d="M118.17 6.14477C117.246 6.14477 116.472 5.85751 115.847 5.283C115.248 4.68351 114.948 3.94664 114.948 3.07238C114.948 2.19813 115.248 1.47374 115.847 0.899233C116.472 0.299744 117.246 0 118.17 0C119.095 0 119.857 0.299744 120.456 0.899233C121.081 1.47374 121.393 2.19813 121.393 3.07238C121.393 3.94664 121.081 4.68351 120.456 5.283C119.857 5.85751 119.095 6.14477 118.17 6.14477Z" fill="#1F5CBF"/>
<path d="M107.091 12.9266V22.9681C107.091 23.6675 107.253 24.1795 107.578 24.5043C107.928 24.804 108.502 24.9539 109.302 24.9539H111.737V29.3751H108.44C104.019 29.3751 101.808 27.2269 101.808 22.9306V12.9266H99.3352V8.61781H101.808V3.48468H107.091V8.61781H111.737V12.9266H107.091Z" fill="#231F20"/>
<path d="M97.1552 18.5468C97.1552 19.2961 97.1052 19.9705 97.0053 20.57H81.8307C81.9556 22.0688 82.4802 23.2428 83.4044 24.092C84.3286 24.9413 85.4651 25.3659 86.814 25.3659C88.7623 25.3659 90.1486 24.5292 90.9729 22.8556H96.6306C96.0311 24.8539 94.8821 26.5025 93.1835 27.8014C91.485 29.0753 89.3993 29.7122 86.9264 29.7122C84.9281 29.7122 83.1296 29.2751 81.531 28.4009C79.9573 27.5016 78.7209 26.2402 77.8216 24.6166C76.9474 22.993 76.5103 21.1196 76.5103 18.9964C76.5103 16.8482 76.9474 14.9623 77.8216 13.3387C78.6959 11.7151 79.9198 10.4661 81.4935 9.59189C83.0672 8.71763 84.8781 8.2805 86.9264 8.2805C88.8997 8.2805 90.6607 8.70514 92.2094 9.55442C93.783 10.4037 94.9945 11.6152 95.8438 13.1888C96.718 14.7375 97.1552 16.5235 97.1552 18.5468ZM91.7223 17.048C91.6973 15.6992 91.2102 14.6251 90.261 13.8258C89.3118 13.0015 88.1503 12.5893 86.7765 12.5893C85.4776 12.5893 84.3785 12.989 83.4793 13.7883C82.6051 14.5627 82.068 15.6492 81.8682 17.048H91.7223Z" fill="#231F20"/>
<path d="M68.2678 29.3749L61.2238 20.5325V29.3749H55.9783V1.64857H61.2238V17.4226L68.1929 8.61764H75.0121L65.8698 19.0338L75.087 29.3749H68.2678Z" fill="#231F20"/>
<path d="M32.0901 18.9964C32.0901 16.8482 32.5272 14.9748 33.4015 13.3762C34.2757 11.7525 35.4872 10.5036 37.0359 9.62935C38.5846 8.73012 40.358 8.2805 42.3563 8.2805C44.9292 8.2805 47.0523 8.92995 48.7259 10.2288C50.4245 11.5028 51.561 13.3012 52.1355 15.6242H46.4778C46.1781 14.725 45.666 14.0256 44.9416 13.526C44.2422 13.0015 43.368 12.7392 42.3189 12.7392C40.8202 12.7392 39.6337 13.2887 38.7594 14.3878C37.8852 15.4619 37.448 16.9981 37.448 18.9964C37.448 20.9697 37.8852 22.5059 38.7594 23.6049C39.6337 24.679 40.8202 25.2161 42.3189 25.2161C44.4421 25.2161 45.8284 24.2669 46.4778 22.3685H52.1355C51.561 24.6166 50.4245 26.4026 48.7259 27.7264C47.0274 29.0503 44.9042 29.7122 42.3563 29.7122C40.358 29.7122 38.5846 29.2751 37.0359 28.4009C35.4872 27.5016 34.2757 26.2527 33.4015 24.6541C32.5272 23.0304 32.0901 21.1445 32.0901 18.9964Z" fill="#231F20"/>
<path d="M25.6712 6.14477C24.747 6.14477 23.9727 5.85751 23.3482 5.283C22.7487 4.68351 22.449 3.94664 22.449 3.07238C22.449 2.19813 22.7487 1.47374 23.3482 0.899233C23.9727 0.299744 24.747 0 25.6712 0C26.5954 0 27.3573 0.299744 27.9568 0.899233C28.5813 1.47374 28.8935 2.19813 28.8935 3.07238C28.8935 3.94664 28.5813 4.68351 27.9568 5.283C27.3573 5.85751 26.5954 6.14477 25.6712 6.14477Z" fill="#1F5CBF"/>
<path d="M28.2565 8.61743V29.3747H23.011V8.61743H28.2565Z" fill="#231F20"/>
<path d="M19.1837 3.22246V7.45635H12.2146V29.3752H6.96906V7.45635H0V3.22246H19.1837Z" fill="#231F20"/>
</svg>
