<svg width="350" height="81" viewBox="0 0 350 81" fill="none" xmlns="http://www.w3.org/2000/svg">
<path d="M324.872 16.9351C328.039 16.9351 330.824 17.5737 333.225 18.8509C335.626 20.077 337.516 21.6863 338.896 23.6787V17.6248H349.701V60.3857C349.701 64.3195 348.909 67.819 347.325 70.8843C345.741 74.0007 343.366 76.453 340.198 78.2411C337.031 80.0802 333.199 80.9998 328.704 80.9998C322.675 80.9998 317.72 79.5949 313.837 76.785C310.005 73.9752 307.834 70.1436 307.323 65.2902H317.975C318.537 67.2315 319.738 68.7642 321.577 69.8881C323.467 71.0631 325.74 71.6507 328.397 71.6507C331.513 71.6507 334.042 70.7055 335.984 68.8153C337.925 66.9761 338.896 64.1662 338.896 60.3857V53.7953C337.516 55.7877 335.6 57.4481 333.148 58.7764C330.747 60.1047 327.988 60.7688 324.872 60.7688C321.296 60.7688 318.026 59.8493 315.063 58.0101C312.1 56.1709 309.75 53.5909 308.013 50.2702C306.327 46.8984 305.484 43.0412 305.484 38.6987C305.484 34.4073 306.327 30.6012 308.013 27.2804C309.75 23.9597 312.074 21.4053 314.986 19.6172C317.949 17.8291 321.245 16.9351 324.872 16.9351ZM338.896 38.852C338.896 36.2464 338.385 34.0241 337.363 32.1849C336.341 30.2947 334.962 28.8642 333.225 27.8935C331.488 26.8717 329.623 26.3609 327.631 26.3609C325.638 26.3609 323.799 26.8462 322.113 27.8169C320.427 28.7875 319.048 30.218 317.975 32.1083C316.953 33.9475 316.442 36.1443 316.442 38.6987C316.442 41.2531 316.953 43.501 317.975 45.4423C319.048 47.3326 320.427 48.7886 322.113 49.8104C323.85 50.8322 325.689 51.343 327.631 51.343C329.623 51.343 331.488 50.8577 333.225 49.887C334.962 48.8653 336.341 47.4348 337.363 45.5956C338.385 43.7053 338.896 41.4575 338.896 38.852Z" fill="white"/>
<path d="M281.105 17.0122C286.163 17.0122 290.25 18.6215 293.366 21.8401C296.482 25.0075 298.041 29.4522 298.041 35.1741V60.0797H287.312V36.6301C287.312 33.2583 286.469 30.6783 284.783 28.8902C283.097 27.0511 280.798 26.1315 277.886 26.1315C274.923 26.1315 272.573 27.0511 270.836 28.8902C269.15 30.6783 268.307 33.2583 268.307 36.6301V60.0797H257.579V17.6253H268.307V22.9129C269.738 21.0737 271.551 19.6433 273.748 18.6215C275.996 17.5486 278.448 17.0122 281.105 17.0122Z" fill="white"/>
<path d="M246.978 17.6265V60.0809H236.249V17.6265H246.978Z" fill="white"/>
<path d="M241.691 12.5677C239.801 12.5677 238.217 11.9802 236.94 10.8052C235.714 9.57906 235.101 8.07195 235.101 6.28386C235.101 4.49577 235.714 3.01421 236.94 1.83918C238.217 0.613059 239.801 0 241.691 0C243.581 0 245.139 0.613059 246.366 1.83918C247.643 3.01421 248.281 4.49577 248.281 6.28386C248.281 8.07195 247.643 9.57906 246.366 10.8052C245.139 11.9802 243.581 12.5677 241.691 12.5677Z" fill="#1F5CBF"/>
<path d="M219.03 26.4388V46.9763C219.03 48.4068 219.362 49.4541 220.026 50.1183C220.741 50.7313 221.916 51.0379 223.551 51.0379H228.532V60.0805H221.789C212.746 60.0805 208.225 55.6869 208.225 46.8997V26.4388H203.167V17.6261H208.225V7.12744H219.03V17.6261H228.532V26.4388H219.03Z" fill="white"/>
<path d="M198.709 37.9324C198.709 39.465 198.607 40.8444 198.402 42.0705H167.366C167.622 45.1358 168.694 47.537 170.585 49.274C172.475 51.011 174.8 51.8795 177.558 51.8795C181.543 51.8795 184.379 50.168 186.065 46.7451H197.636C196.41 50.8322 194.06 54.204 190.586 56.8606C187.112 59.4661 182.846 60.7688 177.788 60.7688C173.701 60.7688 170.023 59.8748 166.753 58.0867C163.535 56.2475 161.006 53.6676 159.167 50.3468C157.378 47.0261 156.484 43.1945 156.484 38.852C156.484 34.4584 157.378 30.6012 159.167 27.2804C160.955 23.9597 163.458 21.4053 166.676 19.6172C169.895 17.8291 173.599 16.9351 177.788 16.9351C181.824 16.9351 185.426 17.8036 188.593 19.5406C191.812 21.2776 194.29 23.7554 196.027 26.9739C197.815 30.1414 198.709 33.7942 198.709 37.9324ZM187.597 34.8671C187.546 32.1083 186.55 29.9115 184.608 28.2767C182.667 26.5908 180.292 25.7478 177.482 25.7478C174.825 25.7478 172.577 26.5652 170.738 28.2C168.95 29.7838 167.852 32.0061 167.443 34.8671H187.597Z" fill="white"/>
<path d="M139.626 60.0796L125.219 41.9944V60.0796H114.49V3.37158H125.219V35.6339L139.472 17.6252H153.42L134.721 38.9291L153.573 60.0796H139.626Z" fill="white"/>
<path d="M65.6323 38.852C65.6323 34.4584 66.5264 30.6267 68.3145 27.3571C70.1026 24.0363 72.5803 21.4819 75.7478 19.6938C78.9153 17.8547 82.5426 16.9351 86.6296 16.9351C91.8917 16.9351 96.2342 18.2634 99.6571 20.9199C103.131 23.5255 105.456 27.2038 106.631 31.955H95.0592C94.4461 30.1158 93.3988 28.6854 91.9173 27.6636C90.4868 26.5908 88.6987 26.0543 86.553 26.0543C83.4877 26.0543 81.061 27.1783 79.2729 29.4262C77.4848 31.623 76.5908 34.7649 76.5908 38.852C76.5908 42.8879 77.4848 46.0299 79.2729 48.2778C81.061 50.4746 83.4877 51.5729 86.553 51.5729C90.8955 51.5729 93.7309 49.6316 95.0592 45.7489H106.631C105.456 50.3468 103.131 53.9996 99.6571 56.7073C96.1831 59.415 91.8406 60.7688 86.6296 60.7688C82.5426 60.7688 78.9153 59.8748 75.7478 58.0867C72.5803 56.2475 70.1026 53.6931 68.3145 50.4235C66.5264 47.1027 65.6323 43.2455 65.6323 38.852Z" fill="white"/>
<path d="M52.504 12.5677C50.6137 12.5677 49.03 11.9802 47.7528 10.8052C46.5266 9.57906 45.9136 8.07195 45.9136 6.28386C45.9136 4.49577 46.5266 3.01421 47.7528 1.83918C49.03 0.613059 50.6137 0 52.504 0C54.3942 0 55.9524 0.613059 57.1785 1.83918C58.4558 3.01421 59.0944 4.49577 59.0944 6.28386C59.0944 8.07195 58.4558 9.57906 57.1785 10.8052C55.9524 11.9802 54.3942 12.5677 52.504 12.5677Z" fill="#1F5CBF"/>
<path d="M57.792 17.6255V60.0799H47.0635V17.6255H57.792Z" fill="white"/>
<path d="M39.2358 6.59131V15.2508H24.9822V60.0808H14.2536V15.2508H0V6.59131H39.2358Z" fill="white"/>
</svg>
