<svg width="233" height="117" viewBox="0 0 233 117" fill="none" xmlns="http://www.w3.org/2000/svg">
<path d="M50.311 22.5587H33.0001V12.2987H79.3365V22.5587H61.9755V67.878H50.311V22.5587Z" fill="#1F5CBF"/>
<path d="M136.544 67.8709H121.206L100.507 44.5312V67.8709H88.8426V12.2916H100.507V34.5489L118.618 12.2916H133.814L111.471 39.2837L136.544 67.8709Z" fill="#1F5CBF"/>
<path d="M200.354 20.3375L191.983 12.0001L172.258 31.6502L180.628 39.9875L200.354 20.3375Z" fill="#27AAE1"/>
<path d="M169.625 50.9423L161.256 42.6049L141.53 62.255L149.899 70.5923L169.625 50.9423Z" fill="#1F5CBF"/>
<path d="M149.895 12.0006L141.526 20.3379L161.251 39.988L169.62 31.6507L149.895 12.0006Z" fill="#ED1C24"/>
<path d="M180.624 42.6052L172.255 50.9425L191.98 70.5925L200.349 62.2553L180.624 42.6052Z" fill="#F7941D"/>
<path d="M189.84 83.2805C191.389 83.2805 192.75 83.5927 193.924 84.2172C195.098 84.8167 196.023 85.6035 196.697 86.5777V83.6177H201.98V104.525C201.98 106.448 201.593 108.159 200.819 109.658C200.044 111.182 198.883 112.381 197.334 113.255C195.785 114.154 193.912 114.604 191.714 114.604C188.766 114.604 186.343 113.917 184.445 112.543C182.572 111.169 181.51 109.296 181.26 106.923H186.468C186.743 107.872 187.33 108.621 188.229 109.171C189.153 109.745 190.265 110.033 191.564 110.033C193.088 110.033 194.324 109.571 195.273 108.646C196.222 107.747 196.697 106.373 196.697 104.525V101.303C196.023 102.277 195.086 103.089 193.887 103.738C192.713 104.388 191.364 104.712 189.84 104.712C188.092 104.712 186.493 104.263 185.045 103.363C183.596 102.464 182.447 101.203 181.597 99.5791C180.773 97.9305 180.361 96.0446 180.361 93.9214C180.361 91.8232 180.773 89.9623 181.597 88.3387C182.447 86.7151 183.583 85.4661 185.007 84.5919C186.456 83.7176 188.067 83.2805 189.84 83.2805ZM196.697 93.9964C196.697 92.7225 196.447 91.6359 195.948 90.7367C195.448 89.8124 194.774 89.113 193.924 88.6384C193.075 88.1389 192.163 87.8891 191.189 87.8891C190.215 87.8891 189.316 88.1264 188.492 88.601C187.667 89.0756 186.993 89.775 186.468 90.6992C185.969 91.5984 185.719 92.6725 185.719 93.9214C185.719 95.1704 185.969 96.2694 186.468 97.2186C186.993 98.1428 187.667 98.8547 188.492 99.3543C189.341 99.8539 190.24 100.104 191.189 100.104C192.163 100.104 193.075 99.8664 193.924 99.3918C194.774 98.8922 195.448 98.1928 195.948 97.2936C196.447 96.3694 196.697 95.2703 196.697 93.9964Z" fill="#231F20"/>
<path d="M168.441 83.3181C170.914 83.3181 172.912 84.1049 174.436 85.6786C175.96 87.2273 176.722 89.4004 176.722 92.198V104.375H171.476V92.9099C171.476 91.2613 171.064 89.9999 170.24 89.1257C169.415 88.2264 168.291 87.7768 166.867 87.7768C165.419 87.7768 164.27 88.2264 163.42 89.1257C162.596 89.9999 162.184 91.2613 162.184 92.9099V104.375H156.938V83.6179H162.184V86.2032C162.883 85.3039 163.77 84.6045 164.844 84.1049C165.943 83.5804 167.142 83.3181 168.441 83.3181Z" fill="#231F20"/>
<path d="M151.755 83.6179V104.375H146.51V83.6179H151.755Z" fill="#231F20"/>
<path d="M149.17 81.1448C148.246 81.1448 147.472 80.8575 146.847 80.283C146.248 79.6835 145.948 78.9466 145.948 78.0724C145.948 77.1981 146.248 76.4737 146.847 75.8992C147.472 75.2997 148.246 75 149.17 75C150.095 75 150.856 75.2997 151.456 75.8992C152.08 76.4737 152.393 77.1981 152.393 78.0724C152.393 78.9466 152.08 79.6835 151.456 80.283C150.856 80.8575 150.095 81.1448 149.17 81.1448Z" fill="#1F5CBF"/>
<path d="M138.091 87.9266V97.9681C138.091 98.6675 138.253 99.1795 138.578 99.5043C138.928 99.804 139.502 99.9539 140.302 99.9539H142.737V104.375H139.44C135.019 104.375 132.808 102.227 132.808 97.9306V87.9266H130.335V83.6178H132.808V78.4847H138.091V83.6178H142.737V87.9266H138.091Z" fill="#231F20"/>
<path d="M128.155 93.5468C128.155 94.2961 128.105 94.9705 128.005 95.57H112.831C112.956 97.0688 113.48 98.2428 114.404 99.092C115.329 99.9413 116.465 100.366 117.814 100.366C119.762 100.366 121.149 99.5292 121.973 97.8556H127.631C127.031 99.8539 125.882 101.502 124.184 102.801C122.485 104.075 120.399 104.712 117.926 104.712C115.928 104.712 114.13 104.275 112.531 103.401C110.957 102.502 109.721 101.24 108.822 99.6166C107.947 97.993 107.51 96.1196 107.51 93.9964C107.51 91.8482 107.947 89.9623 108.822 88.3387C109.696 86.7151 110.92 85.4661 112.493 84.5919C114.067 83.7176 115.878 83.2805 117.926 83.2805C119.9 83.2805 121.661 83.7051 123.209 84.5544C124.783 85.4037 125.994 86.6152 126.844 88.1888C127.718 89.7375 128.155 91.5235 128.155 93.5468ZM122.722 92.048C122.697 90.6992 122.21 89.6251 121.261 88.8258C120.312 88.0015 119.15 87.5893 117.776 87.5893C116.478 87.5893 115.379 87.989 114.479 88.7883C113.605 89.5627 113.068 90.6492 112.868 92.048H122.722Z" fill="#231F20"/>
<path d="M99.2677 104.375L92.2237 95.5325V104.375H86.9782V76.6486H92.2237V92.4226L99.1928 83.6176H106.012L96.8697 94.0338L106.087 104.375H99.2677Z" fill="#231F20"/>
<path d="M63.0901 93.9964C63.0901 91.8482 63.5272 89.9748 64.4014 88.3762C65.2757 86.7525 66.4872 85.5036 68.0358 84.6294C69.5845 83.7301 71.358 83.2805 73.3563 83.2805C75.9291 83.2805 78.0523 83.9299 79.7259 85.2288C81.4244 86.5028 82.561 88.3012 83.1355 90.6242H77.4778C77.1781 89.725 76.666 89.0256 75.9416 88.526C75.2422 88.0015 74.368 87.7392 73.3188 87.7392C71.8201 87.7392 70.6336 88.2887 69.7594 89.3878C68.8851 90.4619 68.448 91.9981 68.448 93.9964C68.448 95.9697 68.8851 97.5059 69.7594 98.6049C70.6336 99.679 71.8201 100.216 73.3188 100.216C75.442 100.216 76.8284 99.2669 77.4778 97.3685H83.1355C82.561 99.6166 81.4244 101.403 79.7259 102.726C78.0273 104.05 75.9041 104.712 73.3563 104.712C71.358 104.712 69.5845 104.275 68.0358 103.401C66.4872 102.502 65.2757 101.253 64.4014 99.6541C63.5272 98.0304 63.0901 96.1445 63.0901 93.9964Z" fill="#231F20"/>
<path d="M56.6711 81.1448C55.7469 81.1448 54.9726 80.8575 54.3481 80.283C53.7486 79.6835 53.4489 78.9466 53.4489 78.0724C53.4489 77.1981 53.7486 76.4737 54.3481 75.8992C54.9726 75.2997 55.7469 75 56.6711 75C57.5953 75 58.3572 75.2997 58.9567 75.8992C59.5811 76.4737 59.8934 77.1981 59.8934 78.0724C59.8934 78.9466 59.5811 79.6835 58.9567 80.283C58.3572 80.8575 57.5953 81.1448 56.6711 81.1448Z" fill="#1F5CBF"/>
<path d="M59.2563 83.6174V104.375H54.0108V83.6174H59.2563Z" fill="#231F20"/>
<path d="M50.1836 78.2225V82.4563H43.2145V104.375H37.969V82.4563H30.9999V78.2225H50.1836Z" fill="#231F20"/>
</svg>
