<svg width="40" height="40" viewBox="0 0 40 40" fill="none" xmlns="http://www.w3.org/2000/svg">
<path d="M0 8C0 3.58172 3.58172 0 8 0H32C36.4183 0 40 3.58172 40 8V32C40 36.4183 36.4183 40 32 40H8C3.58172 40 0 36.4183 0 32V8Z" fill="#1F5CBF" fill-opacity="0.1"/>
<path d="M26.4375 17.9375V15.1875C26.4375 11.7699 23.6676 9 20.25 9C16.8324 9 14.0625 11.7699 14.0625 15.1875V17.9375C12.9233 17.9375 12 18.8608 12 20V22.0625V22.75V24.125V24.8125C12 28.2301 14.7699 31 18.1875 31H22.3125C25.7301 31 28.5 28.2301 28.5 24.8125V24.125V22.75V22.0625V20C28.5 18.8601 27.576 17.9375 26.4375 17.9375ZM15.4375 15.1875C15.4375 12.5296 17.5921 10.375 20.25 10.375C22.9079 10.375 25.0625 12.5296 25.0625 15.1875V17.9375H23.6875V15.1889C23.6875 13.29 22.1489 11.7514 20.25 11.7514C18.3511 11.7514 16.8125 13.29 16.8125 15.1889V17.9375H15.4375V15.1875ZM23 15.1875V15.1896V17.9375H17.5V15.1889V15.1875C17.5 13.6688 18.7313 12.4375 20.25 12.4375C21.7687 12.4375 23 13.6688 23 15.1875ZM27.125 22.0625V22.75V24.125V24.8125C27.125 27.4656 24.9656 29.625 22.3125 29.625H18.1875C15.5344 29.625 13.375 27.4656 13.375 24.8125V24.125V22.75V22.0625V20C13.375 19.6205 13.683 19.3125 14.0625 19.3125C14.5211 19.3125 14.9789 19.3125 15.4375 19.3125H25.0625C25.5204 19.3125 25.9782 19.3125 26.4375 19.3125C26.8163 19.3125 27.125 19.6205 27.125 20V22.0625Z" fill="#1F5CBF"/>
<path d="M20.25 22.0625C19.491 22.0625 18.875 22.6778 18.875 23.4375C18.875 23.8548 19.1039 24.6475 19.3336 25.2745C19.5206 25.7846 19.7557 26.1861 20.25 26.1861C20.7876 26.1861 20.9794 25.7887 21.1671 25.2814C21.3995 24.653 21.625 23.8562 21.625 23.4375C21.625 22.6778 21.009 22.0625 20.25 22.0625Z" fill="#1F5CBF"/>
</svg>
