<svg width="40" height="40" viewBox="0 0 40 40" fill="none" xmlns="http://www.w3.org/2000/svg">
<path d="M0 8C0 3.58172 3.58172 0 8 0H32C36.4183 0 40 3.58172 40 8V32C40 36.4183 36.4183 40 32 40H8C3.58172 40 0 36.4183 0 32V8Z" fill="#1F5CBF" fill-opacity="0.1"/>
<path d="M20.3583 30.7167C26.0791 30.7167 30.7167 26.0791 30.7167 20.3583C30.7167 14.6376 26.0791 10 20.3583 10C14.6376 10 10 14.6376 10 20.3583C10 26.0791 14.6376 30.7167 20.3583 30.7167Z" stroke="#1F5CBF" stroke-width="1.5" stroke-miterlimit="10" stroke-linecap="round" stroke-linejoin="round"/>
<path d="M20.3582 23.0167C17.1499 23.0167 14.3999 24.85 13.0249 27.6C14.8582 29.525 17.5166 30.625 20.3582 30.625C23.1999 30.625 25.8582 29.4333 27.6916 27.6C26.3166 24.9417 23.5666 23.0167 20.3582 23.0167Z" stroke="#1F5CBF" stroke-width="1.5" stroke-miterlimit="10" stroke-linecap="round" stroke-linejoin="round"/>
<path d="M20.3584 20.6333C22.1809 20.6333 23.6584 19.1559 23.6584 17.3333C23.6584 15.5108 22.1809 14.0333 20.3584 14.0333C18.5358 14.0333 17.0583 15.5108 17.0583 17.3333C17.0583 19.1559 18.5358 20.6333 20.3584 20.6333Z" stroke="#1F5CBF" stroke-width="1.5" stroke-miterlimit="10" stroke-linecap="round" stroke-linejoin="round"/>
</svg>
