<svg width="32" height="32" viewBox="0 0 32 32" fill="none" xmlns="http://www.w3.org/2000/svg">
<path d="M28.1333 3.89333C27.9133 3.61594 27.6337 3.39161 27.3151 3.23697C26.9966 3.08233 26.6474 3.00134 26.2933 3H8C6.67392 3 5.40215 3.52678 4.46447 4.46447C3.52678 5.40215 3 6.67392 3 8V10.6667C3.00149 11.784 3.37819 12.8685 4.06968 13.7461C4.76116 14.6238 5.72737 15.2438 6.81333 15.5067L5.13333 23.8933C4.91055 25.0037 5.13799 26.1571 5.76561 27.0998C6.39323 28.0425 7.36963 28.6972 8.48 28.92C9.59037 29.1428 10.7438 28.9153 11.6865 28.2877C12.6291 27.6601 13.2839 26.6837 13.5067 25.5733L14.4267 21H17.3333C17.5566 20.9983 17.7731 20.9228 17.9491 20.7854C18.1252 20.648 18.2508 20.4562 18.3067 20.24L19.4533 15.6667H24.2933C24.815 15.667 25.3218 15.4925 25.7326 15.1711C26.1435 14.8496 26.4348 14.3998 26.56 13.8933L28.56 5.89333C28.6444 5.54938 28.6499 5.19078 28.576 4.84441C28.5021 4.49804 28.3508 4.1729 28.1333 3.89333ZM5 10.6667V8C5 7.20435 5.31607 6.44129 5.87868 5.87868C6.44129 5.31607 7.20435 5 8 5H22.6667L20.4933 13.6667H8C7.20435 13.6667 6.44129 13.3506 5.87868 12.788C5.31607 12.2254 5 11.4623 5 10.6667ZM11.5467 25.1733C11.4428 25.6853 11.1663 26.1461 10.7634 26.4786C10.3605 26.8111 9.85569 26.9952 9.33333 27C9.00217 26.9994 8.67517 26.9262 8.37535 26.7855C8.07552 26.6449 7.81014 26.4403 7.59788 26.1861C7.38563 25.9319 7.23165 25.6343 7.14679 25.3142C7.06192 24.9941 7.04823 24.6593 7.10667 24.3333L8.82667 15.72H13.4667L11.5467 25.1733ZM16.5467 19H14.8133L15.48 15.6667H17.3333L16.5467 19ZM24.6133 13.4133C24.5936 13.484 24.5521 13.5466 24.4946 13.5921C24.4371 13.6376 24.3666 13.6637 24.2933 13.6667H22.6667L24.84 5H26.3467C26.3986 4.99891 26.45 5.01048 26.4965 5.03371C26.5429 5.05694 26.583 5.09113 26.6133 5.13333C26.6336 5.17721 26.6442 5.22498 26.6442 5.27333C26.6442 5.32168 26.6336 5.36945 26.6133 5.41333L24.6133 13.4133Z" fill="#596566"/>
</svg>
