<svg width="40" height="40" viewBox="0 0 40 40" fill="none" xmlns="http://www.w3.org/2000/svg">
<path d="M0 8C0 3.58172 3.58172 0 8 0H32C36.4183 0 40 3.58172 40 8V32C40 36.4183 36.4183 40 32 40H8C3.58172 40 0 36.4183 0 32V8Z" fill="#1F5CBF" fill-opacity="0.1"/>
<path d="M17.6274 12.1186C17.6825 11.5389 17.9517 11.0006 18.3825 10.6089C18.8132 10.2171 19.3746 10 19.9569 10C20.5391 10 21.1005 10.2171 21.5313 10.6089C21.962 11.0006 22.2313 11.5389 22.2864 12.1186C22.3195 12.493 22.4423 12.854 22.6445 13.1709C22.8467 13.4878 23.1222 13.7514 23.4478 13.9393C23.7734 14.1271 24.1395 14.2338 24.5151 14.2502C24.8906 14.2666 25.2646 14.1923 25.6054 14.0336C26.1345 13.7934 26.734 13.7586 27.2874 13.9361C27.8407 14.1135 28.3082 14.4905 28.5989 14.9937C28.8896 15.4968 28.9826 16.0901 28.86 16.6581C28.7374 17.2261 28.4078 17.7282 27.9354 18.0666C27.6277 18.2824 27.3766 18.5692 27.2033 18.9026C27.0299 19.236 26.9394 19.6063 26.9394 19.9821C26.9394 20.3579 27.0299 20.7281 27.2033 21.0615C27.3766 21.395 27.6277 21.6817 27.9354 21.8976C28.4078 22.236 28.7374 22.738 28.86 23.306C28.9826 23.874 28.8896 24.4673 28.5989 24.9705C28.3082 25.4736 27.8407 25.8506 27.2874 26.0281C26.734 26.2056 26.1345 26.1708 25.6054 25.9306C25.2646 25.7718 24.8906 25.6975 24.5151 25.714C24.1395 25.7304 23.7734 25.837 23.4478 26.0249C23.1222 26.2128 22.8467 26.4763 22.6445 26.7932C22.4423 27.1102 22.3195 27.4711 22.2864 27.8456C22.2313 28.4252 21.962 28.9635 21.5313 29.3553C21.1005 29.7471 20.5391 29.9641 19.9569 29.9641C19.3746 29.9641 18.8132 29.7471 18.3825 29.3553C17.9517 28.9635 17.6825 28.4252 17.6274 27.8456C17.5943 27.471 17.4715 27.1099 17.2692 26.7928C17.067 26.4758 16.7913 26.2122 16.4656 26.0243C16.1399 25.8364 15.7736 25.7298 15.3979 25.7135C15.0222 25.6972 14.6482 25.7716 14.3074 25.9306C13.7782 26.1708 13.1787 26.2056 12.6254 26.0281C12.072 25.8506 11.6045 25.4736 11.3138 24.9705C11.0232 24.4673 10.9301 23.874 11.0527 23.306C11.1754 22.738 11.505 22.236 11.9774 21.8976C12.285 21.6817 12.5361 21.395 12.7094 21.0615C12.8828 20.7281 12.9733 20.3579 12.9733 19.9821C12.9733 19.6063 12.8828 19.236 12.7094 18.9026C12.5361 18.5692 12.285 18.2824 11.9774 18.0666C11.5056 17.728 11.1766 17.2262 11.0543 16.6586C10.9319 16.0909 11.025 15.4981 11.3153 14.9953C11.6057 14.4925 12.0727 14.1156 12.6254 13.9378C13.1782 13.7601 13.7773 13.7942 14.3064 14.0336C14.6471 14.1923 15.0211 14.2666 15.3967 14.2502C15.7722 14.2338 16.1383 14.1271 16.4639 13.9393C16.7895 13.7514 17.0651 13.4878 17.2672 13.1709C17.4694 12.854 17.5922 12.493 17.6254 12.1186" stroke="#1F5CBF" stroke-width="1.6" stroke-linecap="round" stroke-linejoin="round"/>
<path d="M19.9561 22.9827C21.6129 22.9827 22.9561 21.6395 22.9561 19.9827C22.9561 18.3258 21.6129 16.9827 19.9561 16.9827C18.2992 16.9827 16.9561 18.3258 16.9561 19.9827C16.9561 21.6395 18.2992 22.9827 19.9561 22.9827Z" stroke="#1F5CBF" stroke-width="1.6" stroke-linecap="round" stroke-linejoin="round"/>
</svg>
