<svg width="32" height="18" viewBox="0 0 32 18" fill="none" xmlns="http://www.w3.org/2000/svg">
<rect width="32" height="18" rx="4" fill="#FCC200"/>
<path d="M6.72443 3.81818L9.18537 11.554H9.27983L11.7457 3.81818H14.1321L10.6222 14H7.84801L4.3331 3.81818H6.72443ZM17.5103 3.81818V14H15.3576V3.81818H17.5103ZM19.2814 14V3.81818H23.2985C24.0707 3.81818 24.7286 3.96567 25.2722 4.26065C25.8158 4.55232 26.2301 4.95833 26.5151 5.47869C26.8034 5.99574 26.9476 6.59233 26.9476 7.26847C26.9476 7.9446 26.8018 8.54119 26.5101 9.05824C26.2185 9.57528 25.7959 9.97798 25.2424 10.2663C24.6922 10.5547 24.026 10.6989 23.2438 10.6989H20.6834V8.97372H22.8958C23.3101 8.97372 23.6515 8.90246 23.9199 8.75994C24.1917 8.61411 24.3939 8.41359 24.5265 8.15838C24.6623 7.89986 24.7303 7.60322 24.7303 7.26847C24.7303 6.9304 24.6623 6.63542 24.5265 6.38352C24.3939 6.12831 24.1917 5.93111 23.9199 5.7919C23.6481 5.64938 23.3034 5.57812 22.8858 5.57812H21.4341V14H19.2814Z" fill="#020305"/>
</svg>
